<?xml version="1.0" encoding="UTF-8"?>
<svg id="Layer_1" data-name="Layer 1" xmlns="http://www.w3.org/2000/svg" viewBox="0 0 676.89 687.51">
  <defs>
    <style>
      .cls-1 {
        fill: #595858;
      }

      .cls-2 {
        fill: #3c4a49;
      }

      .cls-3 {
        fill: #38b61d;
      }

      .cls-4 {
        fill: #413528;
      }

      .cls-5 {
        fill: #f27e0e;
      }

      .cls-6 {
        fill: #4f2d91;
      }

      .cls-7 {
        fill: #e8e6e7;
      }

      .cls-8 {
        fill: #634624;
      }

      .cls-9 {
        fill: #3819d1;
      }

      .cls-10 {
        fill: #3a2c1f;
      }

      .cls-11 {
        fill: #24dcdc;
      }

      .cls-12 {
        fill: #624321;
      }

      .cls-13 {
        fill: #7a1d8c;
      }

      .cls-14 {
        fill: #dc3636;
      }
    </style>
  </defs>
  <path class="cls-10" d="M498.72,586.38c5.72-3.41,11.49-6.77,17.18-10.26,14.22-8.73,27.44-18.77,39.98-29.77,14.44-12.67,27.45-26.63,39.18-41.81,10.71-13.86,20.11-28.55,28.27-44.06,4.69-8.92,8.95-18.02,12.69-27.35,7.91-19.71,13.84-40,17.43-60.98,2.97-17.41,4.96-34.89,4.78-52.54-.16-15.36-1.96-30.58-4.42-45.75-3.32-20.55-9.04-40.42-16.47-59.79-4.97-12.96-10.98-25.51-17.83-37.61-9.59-16.92-20.6-32.84-33.17-47.69-12.56-14.83-26.43-28.28-41.58-40.43-13.29-10.66-27.4-20.11-42.3-28.37-25.83-14.31-53.19-24.65-82.04-30.91-21.25-4.61-42.77-7.27-64.54-7.07-15.36,.14-30.59,1.94-45.75,4.44-24.96,4.12-48.94,11.49-72.04,21.68-17.67,7.79-34.39,17.34-50.25,28.39-12.49,8.7-24.3,18.28-35.3,28.76-11.1,10.56-21.5,21.84-30.62,34.18-2.16,2.92-3.51,2.56-5.55,.11-2.45-2.94-5.07-5.75-7.75-8.49-1.32-1.35-1.52-2.29-.23-3.88,28.46-35.11,62.39-63.54,102.54-84.45,38.25-19.91,78.87-31.69,121.83-35.04,57.18-4.46,111.8,5.53,163.44,30.56,63.92,30.98,112.28,78.18,145.14,141.15,20.12,38.57,31.56,79.66,34.69,123.04,4.2,58.14-6.63,113.43-32.63,165.54-27.62,55.36-68.18,99.01-121.11,131.09-2.3,1.4-4.45,4.5-6.95,3.8-2.33-.65-4.05-3.54-6-5.48-3.4-3.38-6.78-6.79-10.16-10.19-.16-.16-.23-.41-.45-.82Z"/>
  <path class="cls-10" d="M357.99,644.71c-50-.13-97.54-11.07-142.16-33.57-61.61-31.07-108.57-77.3-140.6-138.5-19.94-38.09-31.41-78.67-34.9-121.5-2.66-32.62-.22-64.88,7.04-96.79q1.34-5.87,6.43-2.61c3.13,2,6.19,4.12,9.42,5.96,2.04,1.17,2.31,2.52,1.87,4.72-4.22,20.96-6.87,42.1-6.52,63.52,.22,13.79,1.74,27.47,3.86,41.1,4.27,27.51,12.4,53.84,23.93,79.15,8.16,17.92,18.04,34.89,29.62,50.78,12.99,17.81,27.67,34.12,44.25,48.77,14.69,12.98,30.37,24.5,47.18,34.47,22.98,13.62,47.42,23.98,73.17,31.01,26.35,7.19,53.25,11.09,80.62,10.89,15.36-.12,30.59-1.93,45.75-4.48,9.58-1.61,19.07-3.51,28.28-6.61,1.88-.63,2.6,.42,3.47,1.61,3.77,5.12,7.45,10.3,11.38,15.29,1.82,2.31,1.12,3.01-1.3,3.7-12.23,3.49-24.57,6.47-37.11,8.58-17.76,2.99-35.65,4.6-53.68,4.52Z"/>
  <path class="cls-2" d="M218.72,273.42c2.43-1.07,.96-3.46,1.7-5.02,3.24-6.79,3.7-14.53,7.49-21.15,.73-1.28,.34-3.17,1.37-4.64,.72-1.04-.18-1.42-1.17-1.42-2.28,0-4.55,.06-6.83-.01-7.16-.25-10.02-3.66-8.41-10.52,.99-4.22,1.86-8.5,3.4-12.6,.75-2,.85-2.53,2.57-.56,2.84,3.25,6.74,5.11,10.7,6.73,1.35,3.13,4.64,1.43,6.74,2.69,1.77,.9,2.87,2.65,5.04,3.2,4.89,1.24,9.37,3.77,14.57,4.22,4.6,.4,9.01,2.42,13.74,2.1,8.61-.58,17.2,.75,25.9-1.15,6.62-1.45,13.69-.31,20.61-1.06,9.67-1.05,19.41,.05,28.03,5.24,3.09,1.86,6.45,4.11,8.3,7.05,5.38,8.6,5.93,17.98,2.24,27.48-2.45,6.31-7.88,9.82-12.77,14.02-6.13,5.27-13.54,7.83-20.79,9.56-8.2,1.96-16.76,3.87-25.47,2.91-1.1-.12-2.49-.57-3.98,1.28,4.75-.52,8.09,1.88,11.13,3.86,4.7,3.06,9.44,6.78,8.82,13.65-.23,2.53-.93,4.98-1.33,7.37-.82,4.85-1.79,9.89-1.07,14.91,.25,1.79,.66,3.49,2.45,4.83,6.78,5.06,13.81,1.95,20.72,.85,3.64-.58,7.12-2.02,10.53-3.56,3-1.35,5.97-2.62,9.08-4.9-3.21-.52-3.2-.48-4.2-.18-6.55,1.95-13.12,3.35-20.07,3.05-5.71-.24-12.7-6.2-11.7-11.53,.31-1.68,1.23-2.75,1.95-3.95,3.9-6.48,9.19-11.59,15.91-15.12,5.03-2.64,10.28-4.72,15.67-6.52,4.35-1.46,15.07,.64,17.95,3.91,6.74,7.66,4.46,16.34,.8,24.63-1.79,4.05-5.12,6.94-7.05,10.65-2.15,4.14-5.81,6.64-9.09,8.85-5.96,4.01-13.17,5.95-20.13,7.99-5.37,1.58-11.11,1.68-16.6,2.25-10.18,1.06-20.39,.51-30.32-3.71-8.09-3.44-10.58-10.32-12.2-17.24-1.17-5-1.46-10.66-1.03-15.97,.45-5.66-1.92-10.71-2.47-16.12-.11-1.03-.14-2.19-.93-3.32-3.23-4.6-6.89-8.62-11.73-11.62-1.22-.76-2.28-1.48-3.46-.92-1.33,.62-.67,2.15-.67,3.28-.05,8.16,.25,16.27,1.16,24.42,.69,6.17,2.38,12.04,3.48,18.07,.69,3.81,2.66,7.37,2.6,11.4-.01,.84-.27,1.93,.16,2.47,2.81,3.57-.24,2.91-2.09,2.91-17.99,.03-35.99,.02-53.98,.02-8.42,0-8.74-.37-7.67-8.85,.09-.69,.05-1.9,.81-1.72,3.26,.74,5.11-2.84,8.45-2.37,3.05,.43,5.95-2.96,6.05-6.03,.13-3.8,.35-7.59,.65-11.38,.68-8.78,1.51-17.51,2.51-26.26,.83-7.25,2.68-14.32,3.11-21.6,2.14-1.29,.91-3.16,.82-4.83Zm77.91,9.65c4.99,1.45,10.33-1.08,15.86-1.7,3.91-.43,7.63-1.82,10.28-5.09,1.67-2.05,1.84-4.09-.04-6.08-4.78-5.06-10.29-8.84-17.26-10.36-1.62-.36-3.53-.19-4.83-.97-5.23-3.14-11.15-3.47-16.83-3.75-5.62-.28-11.25-.36-17.08,1.02-4.91,1.16-9.76,2.6-14.61,3.95-3.23,.9-5.86,5.16-4.41,6.9,1.77,2.11,3.37,4.39,5.89,5.96,6.43,4.01,13.77,5.73,20.84,7.43,6.91,1.66,14.05,3.86,22.19,2.69Z"/>
  <path class="cls-2" d="M487.23,501.42c-1.02,2.01-3.36,1.53-4.87,2.6-1.55-2.28-3.93-.88-5.89-1.31-17.75,.03-35.5,.06-53.25,.06-.91,0-1.97,.34-2.64-.64-1.21-1.78,.07-7.89,2.07-8.56,2.65-.89,5.19-2.05,7.79-3.01,5.38-2,8.11-7.76,5.61-12.9-4.14-8.53-11.16-14.42-19.22-18.53-5.98-3.05-12.72-5.09-19.82-4.72-4.15,.22-4.43,.78-3.84,4.86,.56,3.86,2.38,7.36,2.6,11.33,.18,3.22,1.07,6.55,2.1,9.53,1.84,5.3,2.64,10.97,5.17,15.97,1.44,2.86,1.22,6.29,3.64,8.79,1.05,1.09,1.01,3.25,.09,4.31-.85,.98-2.89,.65-4.06,.07-3.9-1.94-8.03-3.15-12.14-4.52-5.91-1.97-12.08-2.62-17.98-4.33-2.95-.85-5.88-.48-8.7-1.16-6.96-1.69-13.95-1.65-20.61,.59-3.27,1.1-2.82-.23-2.82-2.17,0-4.92,.15-9.84-.05-14.75-.14-3.5,1.4-4.64,4.67-4.6,4.8,.05,9.6-.08,14,2.31,1.04,.57,1.29-.22,1.28-.96,0-.94,.02-1.99-.36-2.8-2.24-4.77-2.66-10.05-4.16-15.03-1.26-4.18-2.2-8.65-2.9-13.01-.9-5.63-1.75-11.37-2.12-16.99-.58-8.76-2.05-17.52-1.36-26.37,.2-2.62,.1-5.28,.02-7.91-.11-3.8-2-6.4-5.53-7.02-3.63-.63-7.18-1.33-10.62-2.72-2.42-.98-4.38-7.31-2.58-9.3,.27-.3,.82-.4,1.27-.49,6.86-1.34,13.87-1.32,20.8-2.37,7.44-1.13,15.04-.99,22.59-2.39,4.98-.93,10.37-1.34,15.63-1.19,1.45,.04,2.93,.36,4.2-1.25,.82-1.04,2.8-.81,4.04-.15,1.27,.68,.15,1.92,.09,2.92-.18,3.18-3.24,5.23-3.23,8.64,0,1.24,.2,3.2-.72,4.09-3.12,3-2.99,7.37-3.57,10.78-1,5.9-3.17,11.76-2.61,17.92,.01,.12,.03,.26-.02,.36-2.39,4.89-.62,10.1-1.13,15.14-.07,.65-.19,1.57,.87,1.63,1.01,.06,.83-.88,1.14-1.47,.95-1.82,.39-3.9,1.77-5.89,1.27-1.84,2.48-4.1,3.43-6.32,2.15-5.05,4.33-9.96,7.84-14.41,2.14-2.7,4.68-5.25,6.34-8.5,1.03-2.02,2.49-4.41,4.85-5.43,4.58-1.99,8.73-4.96,12.77-7.58,5.95-3.86,12.35-4.61,18.63-5.46,5.58-.76,11.44-.74,17.31,.69,6.38,1.56,11.79,4,16.81,8.26,5.6,4.75,9.45,10.32,11.45,17.27,1.3,4.49,.78,9.14-1.32,13-1.91,3.5-5.37,6.14-9.36,7.58-2.71,.97-5.57,1.77-8.11,2.91-4.9,2.2-10.14,2.79-15.19,3.61-5.9,.95-12.2,.88-17.98-1.53-5.18-2.17-10.46-4.81-9.92-12.28,.16-2.32,.63-4.36,1.5-6.6,1.83-4.71,5-7.9,9.02-10.51,4.72-3.05,9.86-5.18,15.2-6.91,.86-.28,2.21-.89,1.85-2.28-.35-1.3-1.61-.7-2.46-.74-2.86-.12-5.68,.52-8.49,.66-6.2,.32-11.58,3.1-15.45,7.04-6.67,6.8-14.65,12.41-19.06,21.5-3.06,6.31-7.52,11.98-11.13,18.48,4.96,0,9.62-.14,14.26,.05,3.53,.15,7.23,.16,10.53,1.24,4.67,1.53,9.47,2.66,14.02,4.77,3.95,1.83,8.19,3.14,12.26,4.85,3.45,1.45,6,4.04,9.31,5.61,2.41,1.14,4.93,2.81,6.88,4.64,6.76,6.36,12.17,13.76,15.52,22.59,1.99,5.22,1.81,10.94,4.07,16.07,.01,1.45,.02,2.9,.04,4.36Z"/>
  <path class="cls-1" d="M476.47,502.7c1.96,.44,4.34-.96,5.89,1.31-13.04,7.8-26.99,13.41-41.64,17.35-2.77,.75-5.6,1.33-8.43,1.82-2.21,.38-2.73,.91-.96,2.75,6.57,6.82,13.03,13.75,19.54,20.63,23.14,24.47,46.28,48.93,69.43,73.39,12.11,12.8,24.24,25.57,36.36,38.36,.08,.09,.17,.17,.25,.26,1.42,1.58,3.81,3.52,2,5.4-1.83,1.89-3.87-.52-5.47-1.82-20.91-16.86-41.79-33.76-62.71-50.62-12.79-10.31-25.62-20.56-38.43-30.83-.24-.2-.48-.41-.73-.61-.28-.09-.57-.18-.85-.27,.1,.27,.2,.54,.3,.81,.18,.3,.36,.59,.55,.89,10.83,15.54,21.64,31.1,32.49,46.62,12.44,17.79,24.93,35.54,37.38,53.32,1.2,1.72,3.28,4.02,1.22,5.6-2,1.53-3.4-1.29-4.7-2.72-39.37-43.09-78.72-86.19-118.09-129.29-8.81-9.65-17.66-19.26-26.44-28.93-1.05-1.15-2.1-1.73-3.69-1.77-40.67-1.02-78.37-12.69-113.68-32.4-31.41-17.54-57.86-40.64-76.84-71.51-15.07-24.51-23.2-51.2-23.29-80.14-.01-4.56,0-9.12,.16-13.67,.05-1.47-.45-2.5-1.36-3.54-18.31-20.93-36.61-41.87-54.91-62.81-.84-.97-1.5-2.22-3.21-1.67-12.05,3.89-21.88-.18-31.05-8.05-13.92-11.95-28.02-23.7-43.02-34.29-2.62-1.85-2.6-3.28-.83-5.7,1.76-2.4,3.27-3.55,5.96-1.3,1.48,1.23,2.93,2.67,5.44,2.7-1.4-1.83-2.67-3.79-4.25-5.46-1.57-1.66-1.61-2.72,.14-4.36,10.16-9.49,20.22-19.09,30.27-28.69,1.44-1.37,2.55-1.41,3.88,.13,1.95,2.25,4.04,4.37,6.37,6.37-.5-3.49-2.66-6.21-4.63-8.84-1.7-2.27-1.07-3.34,.73-4.89,7.61-6.5,7.43-6.46,12.65,2.17,8.32,13.78,17.58,26.92,28.5,38.78,7.39,8.02,12.18,16.9,10.99,28.16-.24,2.31,.63,3.71,2.45,5.1,8.76,6.7,17.4,13.55,26.08,20.35,.21,.15,.41,.3,.62,.44,.31,.22,.61,.74,1,.17,.08-.12-.23-.5-.35-.76-.2-.28-.4-.57-.6-.85-12.4-18.4-24.77-36.81-37.19-55.18-9.47-14.01-19.06-27.94-28.45-42-1.45-2.17-3.07-2.92-5.54-3.09-12.29-.84-24.18-3.41-35.52-8.38-19.79-8.68-31.74-23.91-36.71-44.63C-1.68,84.61-.5,62.51,3,40.45c1.84-11.61,3.97-23.16,6.99-34.53,.5-1.89,.67-3.98,2.62-5.92,.57,2.23,1.24,4,1.47,5.84,2.79,22.55,13.97,39.71,33.21,51.63,7.23,4.48,14.71,8.57,22.03,12.91,10.21,6.05,19.43,13.08,25.24,23.9,6.09,11.34,7.4,23.58,6.45,35.95-.49,6.38,1.34,10.31,5.89,14.44,18.02,16.38,34.55,34.23,50.57,52.57,18.94,21.69,36.62,44.38,54.24,67.12,2.34,3.02,4.07,6.52,7.02,9.07,.08,1.67,1.31,3.54-.82,4.83-3.29-4.26-6.57-8.53-9.88-12.78-11.62-14.9-23.17-29.83-35.27-44.35-7.36-8.83-14.55-17.82-22.16-26.43-15.8-17.88-32.28-35.12-49.98-51.16-2.3-2.09-3.06-4.31-2.66-7.29,.66-4.87,.81-9.77,.52-14.7-.99-17.19-7.34-31.5-21.59-41.94-6.7-4.91-13.93-8.89-21.03-13.11-3.42-2.04-6.98-3.84-10.95-6.02,.51,4.87,.46,8.99-1.32,12.98-2.63,5.89-7.39,9.95-11.88,14.23-6.59,6.28-13.71,12.05-17.91,20.43-1.8,3.59-2.32,7.24-1.16,11.14,3.17,10.64,10.82,17.65,19.58,23.51,13.93,9.32,29.75,12.97,46.2,14.22,2.57,.2,4.08,1.12,5.49,3.2,22.43,33.18,44.93,66.31,67.4,99.46,3.8,5.61,7.7,11.17,11.01,17.29-.48-.03-.74,.03-.88-.07-15.72-11.23-30.43-23.75-45.75-35.5-.98-.75-1.28-1.56-1.03-2.79,2.14-10.61-1.84-19.27-8.76-26.94-12.1-13.39-22.65-27.92-31.73-43.51-1.3-2.24-2.3-2.56-4.3-.82-1.64,1.43-1.59,2.51-.49,4.24,6.11,9.61,12.12,19.29,18.11,28.97,.66,1.07,1.81,1.99,1.58,3.49l.06-.07c-1.31-.2-1.93-1.32-2.83-2.08-8.23-6.97-15.55-14.88-22.9-22.73-1.83-1.96-2.85-2.01-4.76-.14-8.11,7.95-16.31,15.82-24.67,23.52-1.93,1.77-1.74,2.77-.36,4.63,4.28,5.74,8.36,11.62,12.53,17.44-.08,.1-.17,.19-.25,.28-7.05-3.44-13.01-8.78-20.26-12.49-.18,1.77,.63,2.22,1.28,2.68,16.24,11.54,30.97,24.99,46.7,37.15,6.55,5.07,14.04,6.98,21.89,3.19,3-1.45,4.37-.61,6.24,1.55,18.07,20.81,36.18,41.6,54.43,62.25,2.19,2.48,3.03,4.77,2.67,8-1.1,9.94-.44,19.9,.95,29.74,5.27,37.37,22.55,68.72,49.01,95.12,24.73,24.68,53.94,42.45,86.72,54.44,24.71,9.04,50.06,14.86,76.48,15.31,1.7,.03,2.84,.58,4.01,1.86,18.79,20.66,37.64,41.25,56.46,61.88,21.81,23.9,43.61,47.81,65.44,71.69,.78,.85,1.48,2.04,2.94,2.02,.23-1.27-.5-1.82-.96-2.48-9.77-13.94-19.55-27.88-29.32-41.82-10.39-14.82-20.78-29.65-31.18-44.47-.83-1.19-2.05-2.62-.78-3.81,1.34-1.25,2.59,.28,3.68,1.15,3.93,3.15,7.83,6.33,11.75,9.49,25.93,20.94,51.87,41.89,77.82,62.8,.92,.74,1.7,2.01,3.24,1.68,.18-1.5-.93-2.03-1.62-2.76-24.6-26.05-49.23-52.08-73.85-78.12-11.45-12.1-22.9-24.2-34.33-36.32-.7-.74-1.92-1.35-1.37-2.65,.38-.88,1.44-.78,2.23-.87,13.87-1.59,26.72-6.53,39.32-12.15,3.82-1.7,8.12-2.77,10.99-6.24Zm25.48,158.8c.28,.06,.56,.12,.84,.18-.06-.29-.13-.58-.19-.87-.2-.27-.39-.54-.59-.81-.34-.35-.66-.98-1.2-.33-.1,.12,.3,.65,.47,.99,.22,.28,.45,.56,.67,.83ZM11.6,14.23c-.38,.99-.73,1.63-.86,2.3-1.18,6.21-2.26,12.43-3.49,18.63-2.66,13.38-4.16,26.91-4.35,40.53-.08,6.05,.62,12.17,1.54,18.17,.72,4.69,1.42,9.46,3.09,13.97,.23,.63,.22,1.57,1.17,1.56,.65,0,.88-.68,1.13-1.23,4.12-9.18,10.98-16.04,18.5-22.47,4.26-3.64,8.16-7.7,11.25-12.49,3.69-5.71,2.93-13.54-3.13-18.66-9.73-8.21-17.14-17.85-21.34-29.96-1.15-3.32-1.3-7-3.51-10.36ZM537.53,643.62c-.17,.07-.47,.14-.47,.23-.02,.19,.12,.38,.2,.58l.8-.36c-.17-.15-.34-.3-.52-.44Zm-1.03-1.24c-.08,.08-.24,.18-.23,.24,.04,.17,.14,.32,.23,.48,.08-.08,.24-.18,.23-.24-.04-.17-.14-.33-.23-.48Z"/>
  <path class="cls-4" d="M487.23,501.42c-.01-1.45-.02-2.9-.04-4.36,14.79-8.44,27.85-19.18,39.66-31.3,13.55-13.91,24.2-29.89,32.11-47.76,8.64-19.55,12.56-40.02,12.44-61.18-.14-23.8-4.83-46.9-13.01-69.27-6.57-17.93-14.02-35.56-24.19-51.69-12.97-20.57-29.15-38.64-47.65-54.5-19.54-16.76-41.36-29.79-65.31-39.31-22.27-8.85-45.4-13.73-69.27-14.86-21.1-1-41.86,1.43-62.11,7.71-16.2,5.02-31.17,12.25-43.93,23.67-7.37,6.6-13.01,14.43-16.54,23.63-6.19,16.15-1.8,30.8,6.89,44.72-2.1-1.26-5.38,.45-6.74-2.69,.83-1.73-.53-3-1.1-4.31-10.75-24.79-3.4-48.65,16.9-65.73,16.42-13.82,35.76-21.07,56.28-25.78,13.01-2.99,26.27-4.16,39.59-4.24,28.59-.19,56.26,4.71,82.89,15.33,23.81,9.49,45.56,22.44,64.92,39.21,19.12,16.57,36.34,35.03,49.09,56.93,17.37,29.83,30.1,61.62,34.47,96.15,3.47,27.41,2.16,54.52-7.68,80.76-7.54,20.12-18.72,37.99-33.42,53.61-13.05,13.86-27.85,25.57-44.25,35.27Z"/>
  <path class="cls-12" d="M167.31,509.2c-4.63,.09-8.59,.03-12.52-1.1-12.1-3.48-17.01-14.4-11.26-25.61,.98-1.91,2.19-3.71,3.25-5.58,1.19-2.11,2.49-3.15,4.71-1.09,1.66,1.54,2.62-.14,3.45-1.17,1.19-1.46-.4-1.78-1.23-2.25-1.44-.83-2.29-1.7-1.07-3.4,1.12-1.56,2.17-2.95,4.23-1.27,.46,.38,1,.67,1.52,.96,1.56,.88,2.21-.59,2.92-1.34,1.11-1.19-.3-1.68-1.02-2.06-2.63-1.4-2.89-2.7-.82-5.15,1.73-2.05,2.7-1.17,4.09-.08,1.37,1.09,2.71,2.12,4.17,.02,1.4-2.01-.46-2.53-1.5-3.25-1.99-1.37-1.99-2.88-.51-4.48,1.62-1.75,2.3,.09,3.36,.94,4.45,3.59,8.96,7.11,13.51,10.57,1.53,1.17,2.03,1.86,.19,3.39-7.19,5.96-14.21,12.12-21.34,18.16-2.12,1.8-3.88,3.87-5.52,6.09-4.76,6.45,.83,11.07,5.86,11.91,4.5,.75,9.07,.4,13.6-.27,3.77-.56,6.33-3.26,9.29-5.22,4.79-3.18,9.47-6.53,14.12-9.92,1.55-1.13,2.55-1.03,3.96,.34,6,5.81,6.04,5.75,.02,11.58-10.75,10.4-21.52,20.78-32.18,31.27-1.83,1.8-2.81,2.04-4.28-.34-2.51-4.08-5.25-8.01-8.02-11.91-1.11-1.55-.85-2.4,.63-3.48,2.63-1.92,5.74-3.22,8.41-6.25Z"/>
  <path class="cls-12" d="M378.54,106.95c-1.1,2.03-3.36,1.39-4.96,2.18-1.33,.65-1.9,.1-2.33-1.19-1.11-3.29-2.41-6.52-3.5-9.82-.6-1.83-1.51-2.68-3.59-2.62-7.79,.22-15.58,.3-23.37,.33-1.79,0-2.49,.78-2.99,2.37-1.44,4.57-3.17,9.06-4.48,13.66-.69,2.45-1.84,2.98-3.83,1.74-3.76-2.35-7.43-4.84-11.17-7.23-1.28-.82-1.26-1.67-.66-3.01,8.67-19.21,17.29-38.44,25.85-57.69,.64-1.43,1.51-1.93,2.94-2.14,8.39-1.24,8.51-1.31,11.44,6.66,6.76,18.41,13.39,36.88,20.08,55.32,.16,.45,.36,.88,.58,1.44Zm-26.47-55c-.24-.05-.49-.1-.73-.15-2.68,9.1-5.34,18.21-8.06,27.3-.57,1.92,.33,2.07,1.79,1.7,4.15-1.06,8.28-2.19,12.45-3.19,2-.48,2.26-1.35,1.61-3.29-2.47-7.42-4.72-14.91-7.06-22.38Zm-10.5,38.78c6.51-.62,12.8-1.16,19.06-1.88,1.06-.12,3.7,.94,2.86-1.6-.61-1.84,.15-5.83-4.15-4.66-4.26,1.16-8.47,2.48-12.76,3.51-2.36,.57-4.2,1.48-5.01,4.63Zm-10.31-2.41c-2.69,5.5-4.25,10.3-5.48,15.23-.41,1.66,.78,1.8,1.72,2.15,1.55,.57,1.73-.47,1.93-1.67,.44-2.6,1.07-5.16,1.53-7.75,.4-2.26,1.05-4.54,.3-7.96Z"/>
  <path class="cls-12" d="M211.27,155.7c-5.74-.27-11.48-.54-17.21-.82-1.85-.09-3.4-.09-4.35,2.14-.92,2.16-.11,3.32,1.32,4.63,4.67,4.3,9.28,8.66,13.93,12.97,2.07,1.92,1.36,7.11-1.17,8.22-.99,.43-1.58-.36-2.19-.83-15.21-11.84-30.4-23.7-45.6-35.55-2.54-1.98-5.15-3.88-7.67-5.89-.73-.58-2.15-1.11-.88-2.48,.88-.95,1.6-2.22,3.22-.95,.97,.76,2.01,2.24,3.4,1.15,1.49-1.16,2.82-2.61,3.92-4.15,.69-.96-.56-1.7-1.1-2.41-.93-1.21-1.21-2.15,.13-3.35,1.3-1.16,2.07-.64,2.96,.39,1.04,1.2,1.99,2.39,3.81,.84,1.61-1.38,3.28-2.41,1.76-4.93-.54-.89-1.91-2.32,.29-3.18,1.77-.7,2.76-.04,3.12,1.73,.36,1.73,1.36,2.03,2.92,1.49,1.01-.35,2.09-.68,3.14-.71,2.01-.05,3.22-.63,2.93-2.94-.15-1.22,.23-2.13,1.77-1.98,1.52,.15,2.3,.97,1.78,2.4-1.22,3.41,1.73,3.98,3.38,5.66,2.2,2.25,4.04,1.79,6.15,.24,.98-.72,1.83-1.14,2.53,.41,.57,1.25,.74,2.12-.64,3.01-1.08,.7-3.49,.85-1.96,3.23,1.23,1.9,.52,5.81,4.78,4.61,1.67-.47,2.3,.42,2.63,1.97,.39,1.82-.84,1.96-2,2.26-.58,.15-1.17,.27-1.75,.41-.91,.22-1.57,.71-1.45,1.72,.1,.88,.92,1.06,1.6,1.16,3.2,.48,6.4,.94,9.61,1.34,4.87,.62,9.73,1.52,14.62,1.7,6.18,.23,8.54-2.13,9.24-8.19,.08-.7-.04-1.63,.83-1.75,.86-.12,1.04,.78,1.33,1.44,3.18,7.3-2.11,14.41-11.23,14.95-2.63,.16-5.27,.02-7.91,.02Zm-22.79-11.5c-.12-.85,.4-2.18-1.01-2.9-5.84-3.01-11.63-6.12-17.54-9-2.46-1.2-4.14,.86-5.41,2.42-1.16,1.43,.74,2.19,1.6,3.02,5.67,5.48,11.42,10.89,17.04,16.43,1.67,1.64,2.64,1.72,3.44-.61,1-2.95,1.81-5.94,1.88-9.36Z"/>
  <path class="cls-12" d="M439.16,125.07c-5.03-.35-8.13-4.01-10.37-8.36-2.4-4.67-4.3-9.61-6.39-14.44-1.19-2.75-2.46-5.47-3.44-8.3-.68-1.98-1.87-2.36-3.78-2.39-2.02-.03-2.66,.94-3.18,2.62-2.05,6.63-4.21,13.22-6.32,19.83-.33,1.03-.54,2.25-2.03,2.02-1.97-.31-4.14,.15-5.88-.99-.71-.46,.13-1.55,.3-2.33,3.5-15.89,7.05-31.77,10.57-47.65,1.24-5.61,2.4-11.25,3.7-16.85,.3-1.31,0-3.38,2.62-2.84,2.2,.45,1.83,1.94,1.49,3.29-.94,3.78,2.56,3.03,4.17,4.02,1.64,1.01,3.15,.56,3.71-1.7,.32-1.3,1.23-1.96,2.75-1.41,1.62,.59,1.59,1.94,1.07,2.93-1.37,2.62,.26,3.44,2.1,4.59,2.35,1.48,3.18-.28,4.35-1.58,.75-.82,1.32-2.27,2.71-.54,.91,1.12,1.65,1.91,.15,3.17-.91,.76-2.58,2.08-.78,3.09,2.15,1.2,1.72,6.15,5.87,4.17,2-.95,2.69,.24,3.19,1.64,.67,1.9-1.22,2.07-2.09,2.06-2.76-.02-2.73,1.61-3.09,3.69-.55,3.16-1.39,6.04,2.53,7.63,1.22,.5,1.01,1.35,.16,2.24-.76,.8-1.27,1.73-2.6,.74-.91-.67-1.97-2.16-3.02-1.45-1.64,1.12-2.96,2.77-4.21,4.35-.82,1.03,.45,1.74,.94,2.43,.95,1.35,1.39,2.36-.3,3.56-1.59,1.13-2.35,.35-3.18-.85-.74-1.07-1.48-2.65-3.01-1.89-1.74,.86-.34,2.33-.01,3.44,1.88,6.31,3.87,12.58,5.8,18.87,.5,1.62,1.16,3.13,2.17,4.51,3.45,4.67,4.65,5.1,10.32,3.45,.68-.2,1.43-.71,1.94,.03,.54,.78-.28,1.28-.74,1.78-1.7,1.86-5.22,3.4-8.18,3.4Zm-10.42-59.38c.2,0,.4,0,.61,0,0-1.07,.14-2.17-.03-3.22-.42-2.59-2.9-2.72-4.67-3.22-1.46-.41-1.42,1.53-1.8,2.56-1.02,2.8-1.98,5.62-2.95,8.45-1.5,4.39-2.78,8.85-4.55,13.16-1.38,3.37-.59,4.13,3.15,3.75,2.5-.25,4.9-.95,7.27-1.83,2.09-.77,3.02-2.06,2.99-4.28-.06-5.12-.02-10.25-.02-15.38Z"/>
  <path class="cls-12" d="M635.96,253.64c.25,9.18-2.69,17.89-11.9,23.51-10.08,6.15-20.38,7.84-31.25,1.76-10.91-6.1-17.89-15.6-23.63-26.31-1.03-1.93-.37-2.54,1.33-3.02,11.52-3.25,23.05-6.5,34.56-9.79,7.93-2.26,15.87-4.48,23.75-6.91,2.51-.77,3.63-.35,4.23,2.34,1.27,5.74,2.49,11.47,2.9,18.41Zm-3.88-3.11c-.13-1.87-.32-3.19-.28-4.5,.11-3.38-1.14-3.96-4.27-2.77-13.63,5.17-27.35,10.09-41.01,15.2-8.69,3.25-8.55,3.22-2.07,10.31,2.57,2.81,5.01,4.09,8.6,2.23,2-1.03,4.39-.85,6.39-2.09,1.39-.86,2.68-.22,2.99,1.39,.41,2.11,1.67,2.47,3.39,1.95,1.98-.6,.81-2.03,.44-2.92-.96-2.32,1.01-2.57,2.17-3.27,1.47-.89,2.02,.26,2.69,1.37,.62,1.03,.41,3.18,2.76,2.37,2.38-.82,1.48-2.32,.89-3.74-.93-2.23,.86-2.6,2.18-3.3,1.72-.91,1.99,.52,2.53,1.55,.5,.94,.39,2.57,2.31,1.88,1.74-.62,1.76-1.81,1.17-3.15-.92-2.12-.32-3.38,1.86-4.09,1.01-.33,1.9-1.06,2.91-1.38,3.81-1.22,5.57-3.53,4.34-7.04Z"/>
  <path class="cls-12" d="M211.4,559.02c-13.83-.25-20.8-4.58-22.31-13.76-1.5-9.16,3.14-17.74,11.18-20.68,9.54-3.49,18.87,.89,26.03,12.5,3.3-4.84,6.52-9.53,9.71-14.24,2.69-3.97,5.44-7.9,7.97-11.97,1.25-2.02,2.48-2.52,4.66-1.43,3.53,1.76,7.17,3.31,10.78,4.9,1.25,.55,1.73,1.03,.6,2.32-9.78,11.12-19.5,22.3-29.26,33.45-5.5,6.29-11.09,12.5-16.53,18.85-1.65,1.92-3.07,1.94-4.82,.32-1.56-1.44-3.59-2.53-1.21-5.13,1.3-1.41,2.63-3.06,3.18-5.13Zm10.14-19.8c-.09-2.66-2.19-5.3-4.78-7.76-1.4-1.33-2.45-1.65-3.82-.02-1.03,1.23-2.18,2.28-3.76,.41-.72-.85-1.5-2.69-3.08-1.27-1.41,1.28-.13,2.42,.75,3.33,1.11,1.16,1.33,2.17,.05,3.33-1.47,1.33-2-.13-2.84-.87-.76-.67-1.14-2.52-2.72-1.14-1.4,1.22-.09,2.09,.49,3.04,.06,.1,.13,.2,.2,.3,.7,1.05,1.32,2.12-.08,3.08-1.34,.92-1.97-.24-2.57-1.06-.9-1.23-1.95-1.98-3.24-.79-1.3,1.2-.09,2.15,.72,2.98,1.26,1.29,1.88,2.42-.06,3.71-2.16,1.43-1.73,2.95-.13,4.67,3.92,4.23,9.19,5.34,15.09,3.01,5.47-2.16,9.85-8.36,9.77-14.96Z"/>
  <path class="cls-12" d="M142.21,389.62c.01-4.85-2.55-9.32-6.04-10.56-3.7-1.31-6.59-.45-9.13,2.97-2.8,3.78-4.45,8.2-6.56,12.36-6.12,12.06-17.24,14.4-28.1,6.36-10.59-7.84-12.32-25.93-4.61-35.43,.9-1.11,1.93-2.13,3.01-3.06,1.98-1.69,4.84-.98,6.04,1.38,.71,1.4-.6,1.6-1.23,2.13-4.69,3.89-6.72,8.89-6.35,14.93,.46,7.4,7.16,11.73,14.09,9.12,4.39-1.65,7.07-5.11,9.7-8.76,2.99-4.15,5.27-8.95,9.87-11.73,8.59-5.21,17.55-3.07,22.24,5.85,3.87,7.37,4.86,15.25,1.34,23.2-2,4.52-7.83,6.7-13.27,5.06-4.04-1.22-6.15-5.46-5.24-10.55,.72-4.03,5.02-6.06,8.15-3.83,.68,.49,1.44,1.02,1.26,2-.2,1.09-1,1.13-1.93,.97-2.03-.36-2.48,.93-2.52,2.56-.05,1.71,.36,3,2.39,3.36,4.13,.72,6.89-2.54,6.9-8.33Z"/>
  <path class="cls-12" d="M279.17,575.12c2.09,.78,2.68-.39,3.11-2.19,.38-1.61,.95-3.26,1.82-4.65,1.44-2.29,2.64-4.23-.55-6.15-1.31-.79-.65-2.11,.18-3.11,1.08-1.31,1.97-.52,2.58,.4,1.7,2.59,3.41,2.21,5.4,.33,.76-.72,1.76-1.39,2.76-1.63,3.32-.79,5.76-1.88,4.34-6.15-.55-1.64,1.16-1.67,2.36-1.81,1.37-.16,2.2,.32,1.94,1.73-.67,3.63,1.53,3.93,4.31,4.28,4.1,.52,7.89,2.09,10.84,5.13,1.38,1.42,2.51,1.93,4.09,.33,.79-.8,1.78-1.79,2.9-.16,.96,1.4,1.28,2.68-.47,3.58-2.21,1.13-1.94,2.43-.89,4.33,1.23,2.21,1.69,4.78,1.56,7.3-.12,2.42,.82,3.16,3.13,3,1.2-.08,3.14-.81,3.05,1.71-.08,2.14-1.17,3.04-3.25,2.63-2.73-.53-4.2,.52-4.77,3.27-.23,1.12-1.02,2.17-1.71,3.13-1.28,1.79-2.18,3.43,.14,5.16,1.38,1.02,.82,1.97-.39,2.8-1.09,.75-2.1,1.96-3.02-.17-.9-2.08-2.23-1.63-3.68-.59-3.01,2.15-6.44,3.22-10.07,3.44-1.91,.12-2.84,.7-2.93,2.7-.09,1.99-1.1,3.09-3.28,2.56-2.34-.57-1.41-2.11-.92-3.38,.67-1.73,.31-2.61-1.61-3.08-3.58-.88-6.65-2.86-8.95-5.67-1.48-1.81-2.55-1.53-4.19-.46-1.18,.77-2.44,2.93-4.05,.36-1.61-2.55,.61-3.16,2.08-3.9,1.84-.93,2.39-2.06,1.64-4.02-.55-1.44-1.01-2.98-1.12-4.51-.13-1.86-.68-2.76-2.72-2.83-1.32-.04-3.52,.33-3.11-2.27,.35-2.26,2.16-1.26,3.46-1.45Zm34.41-1.63c-.46-4.02-1.32-7.71-5.38-9.5-3.85-1.7-7.52-1.23-10.77,1.44-5.24,4.29-7.71,10.05-7.86,16.67-.1,4.39,1.9,7.85,6.22,9.58,4.22,1.69,7.78,.39,10.83-2.58,4.4-4.29,6.48-9.67,6.96-15.61Z"/>
  <path class="cls-12" d="M245.95,99.68c3.15,7.51,7.57,14.35,11.38,21.51,1.24,2.33,1.56,3.86-1.01,5.23-2.49,1.33-4.38,5.09-6.91,4.39-2.17-.61-2.6-4.54-3.73-7.02-6.41-14.04-12.72-28.12-19.06-42.2-1.22-2.71,1.74-7,4.63-6.75,1.19,.11,1.41,1.16,1.84,1.98,2.52,4.75,5.06,9.49,7.54,14.26,1.84,3.55,2.38,3.69,5.13,.62,5.59-6.25,10.15-13,10.89-21.74,.2-2.34-.36-4.52-.48-6.78-.08-1.42-.25-2.62,1.68-2.82,1.6-.17,2.37,.44,2.82,2,2.45,8.58,2.44,16.79-3.29,24.23-1.6,2.08-3.18,4.2-4.94,6.16-1.56,1.73-1.11,2.52,.9,3.27,9.08,3.38,18.1,6.94,27.22,10.23,3.06,1.11,3.65,2.23,1.97,5.26-4.06,7.34-3.9,7.44-11.05,3.09-8.38-5.1-16.74-10.22-25.11-15.33-.26-.25-.55-.41-.81-.03-.02,.03,.27,.28,.41,.42Z"/>
  <path class="cls-8" d="M625.32,387.36c1.19,1.1,1.32,3.58,3.23,2.07,1.33-1.05,.72-2.69-.12-3.92-1.34-1.97-4.41-1.75-5.78,.34-1.63,2.49-1.15,6.61,1.01,8.65,2.29,2.16,6.11,2.41,8.62,.56,2.95-2.17,4.22-7.32,2.93-11.89-1.28-4.53-3.63-6.55-8-7.02-2.91-.31-5.08,.95-6.91,3.01-3.76,4.23-6.15,9.38-9.37,13.99-5.56,7.95-20.45,10.27-25.64-1.74-2.68-6.19-2.96-12.79,1.09-18.8,2.51-3.72,6.97-4.42,11.51-2.05,3.03,1.59,4.3,6.1,2.77,9.85-1.24,3.03-4.53,4.6-7.67,3.66-2.46-.74-3.63-3.28-2.9-6.14,.45-1.75,1.62-2.3,3.23-2.09,1.16,.15,1.93,.82,.74,1.8-1.08,.89-2.03,1.76-.44,2.68,1.46,.85,2.94,.1,3.51-1.44,.78-2.14,.84-4.48-1.4-5.77-2.48-1.43-4.91-.8-6.73,1.41-1.99,2.41-2.06,7.49-.28,10.23,2.02,3.1,6.24,4.67,9.78,3.6,2.11-.64,3.87-1.87,5.44-3.38,3.44-3.31,6.7-6.78,9.69-10.51,3.92-4.89,10.74-7.22,16.03-5.46,6.03,2.01,9.44,7.07,9.43,14.17,0,3.9,.58,7.77-1.37,11.57-2.5,4.87-6.76,7.23-12.06,5.92-4.99-1.23-8.06-5.42-7.79-10.65,.27-5.45,2.82-9.04,6.89-9.64,2.72-.4,5.03,.29,6.4,2.86,1.47,2.77,2.09,5.69,.27,8.51-1.03,1.59-2.82,2.04-4.46,1.17-2-1.06-2.73-2.86-1.65-5.56Z"/>
  <path class="cls-8" d="M528.8,168.01c.05-4.17,2.24-7.26,5.28-9.76,5.41-4.45,11.58-5.38,18.27-3.61,1.11,.29,2.44,1.36,2.73-1.14,.94-8,6.31-12.69,14.34-12.83,7.05-.12,13.71,3.99,15.37,9.67,.92,3.17,.67,6.18-2.17,8.49-2.45,2-5.01,1.97-7.69,.55-1.03-.54-1.63-1.26-1.52-2.56,.12-1.43,.94-1.64,2.13-1.84,2.12-.36,4.24-1.3,4.02-3.78-.22-2.57-2.13-4.29-4.64-4.89-4.1-.97-9.61,1.76-12.29,5.88-1.68,2.59-.99,6.77,1.66,10.31,1.21,1.62,3.21,2.78,2.22,5.51-.42,1.16,.99,1.02,1.69,.49,.61-.46,1.13-.97,1.87-.39,.83,.64,.19,1.26-.15,1.85-.3,.52-.66,1.1-.09,1.6,.74,.64,1.29,.07,1.82-.44,.43-.42,.87-.88,1.53-.39,.79,.59,.43,1.21,.06,1.87-.33,.58-1.06,1.23-.28,1.86,.71,.57,1.33-.03,1.82-.56,.55-.6,1.12-.92,1.8-.21,.66,.69,.29,1.37-.15,1.93-1.54,1.98-3.05,4-4.73,5.87-1.6,1.78-2.49-.19-2.93-1.06-1.86-3.72-3.85-3.55-6.89-1.14-3.94,3.11-8.3,5.68-12.43,8.56-1.41,.98-2.68,1.07-4.33,.52-9.11-3.02-16.36-11.96-16.32-20.32Zm7.28,7.6c-.02,3.29,2.3,6.8,5.18,7.94,1.24,.49,2.29,.48,3.26-.55,4.32-4.61,8.6-9.25,12.99-13.79,2.8-2.89-.55-4.69-1.09-6.97-.48-2.03-2.17-1.53-3.54-1.33-6.37,.93-11.23,4.34-15.07,9.36-1.21,1.58-1.81,3.35-1.74,5.35Zm2.34-10.59c1.8-.54,3.07-1.41,2.86-3.51-.2-2.03-1.45-3.06-3.37-2.88-1.9,.17-3.03,1.42-2.94,3.4,.1,2.14,1.83,2.52,3.45,2.99Zm-5.03,.83c-1.25,.39-2.43,1.06-2.39,2.57,.04,1.4,.89,2.54,2.42,2.48,1.4-.05,2.55-.9,2.52-2.42-.02-1.45-1.12-2.22-2.56-2.64Zm12.19-10.06c-1.14,.48-2.43,1.05-2.36,2.63,.06,1.45,.92,2.57,2.5,2.42,1.36-.13,2.64-.9,2.53-2.48-.1-1.38-.99-2.39-2.66-2.57Z"/>
  <path class="cls-12" d="M135.18,454.5c-2.62,.76-3.13-1.11-3.75-3.28-1.58-5.55-1.67-5.52-7.16-4.21-6.04,1.44-12.08,2.88-18.13,4.3-2.72,.64-6.18-1.98-6.48-4.77-.11-1.06,.57-1.01,1.24-1.3,7.03-3,14.04-6.07,21.06-9.09,4.44-1.91,4.45-1.88,2.89-6.48-.42-1.24-1.25-2.72-.13-3.7,1.05-.93,2.86-1.04,4.11-.54,1.7,.68,1.71,2.77,2.19,4.3,.79,2.52,2.04,2.04,3.72,1.06,1.12-.65,1.11-1.36,.61-2.36-.8-1.61-1.51-3.27-2.34-4.86-.69-1.33-.76-2.18,.68-3.28,4.66-3.56,4.69-3.63,6.83,1.83,1.97,5.04,1.99,5.08,7.07,3.16,2.89-1.09,5.77-2.25,8.56-3.58,1.72-.82,2.64-.4,3.43,1.19,2.04,4.07,4.07,8.15,6.26,12.13,1.01,1.83,.23,2.25-1.36,2.59-4.68,1.01-9.32,2.2-14.03,3.1-1.97,.38-2.42,1.12-1.67,2.89,.56,1.32,1.01,2.69,1.46,4.05,.37,1.13,1.68,2.51-.5,3.16-1.63,.49-3.46,1.52-4.39-1.19-.54-1.57-1.45-3.02-2.21-4.51-1.08-2.12-3.92-2.71-5.84-1.27-.7,.52-.77,1.12-.51,1.88,.52,1.46,.95,2.95,1.51,4.39,1.66,4.21,1.65,4.24-3.14,4.39Zm17.23-18.49c2.24-.33,4.38-.95,4.35-3.73-.03-2.44-.85-4.5-3.93-4.36-2.45,.11-4.25,1.17-4.23,3.78,.03,2.3,1.09,4.13,3.81,4.31Zm-8.12-.33c-.32-1.82-.96-3.52-2.98-3.46-1.81,.05-3.64,.84-3.4,3.21,.17,1.73,.83,3.3,3.07,3.15,1.87-.12,3.16-.9,3.32-2.89Z"/>
  <path class="cls-8" d="M588.67,468.19c4.42,3.05,7.27,6.86,6.29,12.62-1.11,6.51-3.24,12.28-10.06,14.98-1.64,.65-3.08,1.8-4.91,1.96-.67,.06-1.51,.43-1.91-.43-.35-.75,.13-1.29,.66-1.85,5.96-6.38,6.64-11.89,2.27-19.38-4.33-7.42-10.43-12.76-18.87-14.93-6.5-1.67-12.85,1.2-15.22,6.51-2.38,5.34,1.95,14.08,7.68,15.81,1.59,.48,1.61-.59,1.9-1.37,1.19-3.13,2.41-6.26,3.37-9.47,.58-1.92,1.6-2.02,3.22-1.6,1.79,.47,1.9,1.55,1.4,3-.62,1.8-1.21,3.62-1.91,5.39-.21,.53-.86,1.03-.23,1.52,.7,.55,1.33,.06,1.8-.54,.89-1.13,1.84-2.22,2.62-3.42,1.22-1.89,2.43-1.58,4.16-.56,2.25,1.32,.67,2.59,.03,3.51-3.42,4.9-7.01,9.68-10.55,14.5-.55,.75-1.26,1.1-2.17,.57-7.16-4.15-13.95-8.75-15.79-17.56-1.9-9.09,4.67-19.04,14.06-21.8,4.04-1.19,8.17-1.42,12.35-1.4,9.39,.06,14.38,6.44,19.14,13.18-.13,.17-.25,.34-.37,.51-.34-.1-.68-.22-1.02-.3-2.14-.49-3.24,.76-3.47,2.56-.23,1.8,.98,3.01,2.78,2.93,1.86-.08,3.12-1.08,2.81-3.26-.08-.57,0-1.15,0-1.73,0,0-.05,.06-.05,.06Zm1.23,10.05c-.11-1.36-.96-2.17-2.26-2.18-1.31-.02-2.25,.8-2.26,2.19,0,1.38,.87,2.2,2.23,2.19,1.32,0,2.19-.72,2.29-2.19Zm-7.43-13.69c-.1-1.28-.68-2.1-1.95-2.11-1.32-.01-2.32,.59-2.36,2.03-.04,1.4,.9,2.23,2.17,2.32,1.44,.09,1.95-1.04,2.15-2.24Z"/>
  <path class="cls-8" d="M608.22,310.38c4.56,0,9.12,.14,13.66-.06,2.07-.09,3.26,.21,3.19,2.53-.04,1.21,.35,2.29,1.78,2.08,1.41-.21,.84-1.47,.82-2.33-.03-1.06-.44-2.28,1.29-2.33,1.45-.04,2.69,.21,2.65,2.07-.03,1.32-.31,2.83,1.77,2.75,2.25-.1,1.4-1.82,1.38-2.95-.03-1.43,.65-1.95,1.92-2,1.37-.06,1.96,.63,1.91,1.97-.05,1.29-.37,2.96,1.63,2.89,2.25-.07,1.1-1.98,1.23-3.04,.31-2.53,2.17-1.7,3.57-1.82,1.46-.12,2.6,.14,2.53,2.07-.27,7.17,.22,14.4-2.08,21.37-1.4,4.25-4.44,6.9-8.35,8.77-2.36,1.13-3.06-.09-3.81-2.11-.85-2.27,.38-2.13,1.91-2.58,4.15-1.23,6.55-3.95,7.02-8.5,.77-7.35,.91-7.33-6.26-7.74-4.07-.24-8.14-.46-12.2-.79-1.9-.16-2.62,.39-2.34,2.39,.48,3.44,.83,6.9,1.12,10.36,.2,2.33-.17,3.7-3.21,2.49-6.2-2.47-6.26-2.31-5.06-8.75,1.26-6.75,1.26-6.78-5.36-7.45-4.41-.44-8.83-.7-13.23-1.2-1.64-.18-2.22,.35-2.16,1.89,.12,2.88,.28,5.75,.32,8.63,.03,1.96,1.42,2.53,2.81,3.31,1.7,.95,4.08,1.48,3.97,4.08-.07,1.64,1.56,4.13-.58,4.78-2.63,.8-5.61,1.49-8.44,.32-.92-.38-.86-1.31-.86-2.18,0-8.75,.04-17.51-.08-26.26-.03-2.16,.91-2.68,2.79-2.66,4.91,.05,9.83,.02,14.74,.02,0,0,0-.02,0-.03Z"/>
  <path class="cls-8" d="M519.04,90.96c-.96,1.08-.96,2.87-2.36,3.76-1.19,.75-2.04-.2-2.89-.79-4.09-2.82-8.68-4.48-13.3-6.17-2.27-.83-3.12-.17-3.95,1.93-5.68,14.2-11.55,28.33-17.18,42.55-1.09,2.74-2.03,3.37-4.49,1.46-2.55-1.97-5.31-3.67-8.07-5.34-1.81-1.09-2.05-2.1-.92-3.99,6.55-11,12.97-22.07,19.42-33.13,1.32-2.27,3.68-4.64,3.56-6.85-.13-2.53-3.94-2.72-6.05-4.07-5.8-3.7-7.88-7.82-6.21-13.06,.33-1.04,.39-2.62,2.13-2.37,1.8,.26,.91,1.68,.86,2.58-.22,4.28,2.51,6.54,5.72,8.39,5.55,3.2,11.79,4.63,17.79,6.67,4.98,1.7,9.95,3.42,14.3,6.51,.67,.48,1.47,.85,1.66,1.92Zm-33.95,18.15c-.21-1.88-1.19-3.26-3.07-3.33-1.86-.07-3.14,1.14-3.25,3.08-.11,1.99,1.09,3.2,2.98,3.29,1.93,.1,2.97-1.2,3.34-3.04Zm4.02-9.82c-.14-1.39-1.3-2.14-2.58-2.24-1.5-.11-2.41,1-2.45,2.47-.05,1.72,1.15,2.67,2.69,2.67,1.52,0,2.12-1.28,2.35-2.9Zm-12.08,22.21c1.54-.19,2.33-1.11,2.38-2.63,.05-1.7-1.19-2.41-2.54-2.42-1.47,0-2.42,1.16-2.47,2.6-.06,1.63,1.28,2.11,2.63,2.45Z"/>
  <path class="cls-8" d="M490.07,515.46c6.54,0,13.07,0,19.61,0,5.51,0,11.02,.01,16.54-.03,.75,0,1.8,.34,2.12-.75,.25-.84-.6-1.19-1.07-1.7-4.12-4.51-8.13-9.14-12.41-13.49-1.86-1.89-1.6-3.16,.17-4.65,.18-.15,.36-.32,.52-.49q5.01-5.06,7.59,1.52c.48,1.22,.69,2.37-.38,3.29-2.32,2.01-1.17,3.52,.44,5.28,5.59,6.08,11.09,12.25,16.6,18.4,1.5,1.68,2.94,3.41,5.02,5.84-13.29-1.24-25.69-2.4-38.06-3.56-.71,1.1,.26,1.6,.73,2.15,3.44,3.99,6.91,7.95,10.4,11.89,2.84,3.21,6.27,5.51,10.4,6.79,.87,.27,2.63,.04,2.11,1.7-.42,1.33-1.85,.73-2.85,.57-2.5-.41-4.95-1.15-7.14-2.39-12.8-7.26-20.55-19.67-30.79-29.53,.15-.28,.3-.56,.45-.84Zm26.27,2.49c-1.22,.14-2.24,.65-2.4,2.06-.19,1.7,.99,2.39,2.36,2.48,1.36,.09,2.21-.85,2.31-2.2,.1-1.47-.98-2.01-2.27-2.35Zm12.13,3.12c-.17-1.03-.7-1.81-1.8-1.84-1.12-.03-1.8,.81-1.84,1.78-.04,1.01,.66,1.8,1.76,1.84,1.14,.04,1.64-.77,1.88-1.78Zm-22.42,.47c.71-.4,1.51-.89,1.34-2.08-.14-.97-.81-1.55-1.73-1.48-1.01,.08-1.9,.67-1.79,1.84,.09,1.07,.85,1.66,2.18,1.72Z"/>
  <path class="cls-8" d="M269.61,537.53c5.03,.29,7.09,3.56,5.38,8.23-4.63,12.68-9.23,25.37-13.73,38.1-.73,2.06-1.32,2.81-3.43,1.42-4.09-2.69-8.31-5.2-12.51-7.73-1.46-.88-1.98-1.57-.83-3.32,7.79-11.78,15.43-23.66,23.13-35.5,.46-.71,.95-1.42,1.99-1.2Zm-13.83,30.12c-2.61,.46-4.16,1.82-4.02,4.6,.13,2.59,1.59,3.98,4.15,3.91,2.58-.08,4.39-1.22,4.23-4.17-.15-2.72-1.76-4.03-4.36-4.34Zm6.6-3.42c1.88-.52,3.1-1.69,3.02-3.77-.09-2.2-1.6-3.18-3.59-3.17-2.44,.02-3.21,1.88-3.3,3.9-.12,2.55,2.17,2.38,3.87,3.04Z"/>
  <path class="cls-8" d="M571.52,428.21c.22-4.87,.31-4.98,4.98-4.23,14.43,2.3,28.47,6.07,42.16,11.19,2.23,.84,2.39,1.9,1.66,3.73-.89,2.22-1.91,4.41-2.58,6.69-.69,2.35-1.66,2.18-3.58,1.24-10.73-5.25-21.51-10.41-33.09-13.6-2.53-.7-5.06-1.41-7.6-2.07-1.7-.44-2.4-1.43-1.96-2.95Zm40.81,12.86c-3.88-3.96-8.32-6.63-12.89-9.14-1.27-.69-2.19-.25-2.61,.86-.48,1.28,.76,1.53,1.62,1.85,3.93,1.49,7.43,3.72,10.87,6.09,.74,.51,1.44,1.37,3.02,.34Z"/>
  <path class="cls-8" d="M274.05,531.64c-.22-1.59-.49-3.92-3.93-2.83-1.28,.41-2.11,.04-2.38-1.32-.28-1.41,.67-1.47,1.69-1.66,2.52-.46,3.87-3.34,2.72-5.7-.26-.53-.6-1.05-1-1.49-1.08-1.18,.03-1.6,.7-2.21,1.09-.99,1.47-.01,1.83,.7,.69,1.35,1.36,2.41,3.25,2.05,1.58-.3,2.14-1.12,2.5-2.56,.29-1.15,.42-2.99,2.41-2.22,1.85,.72,.49,2,.22,3.01-.81,3.02,.66,4.79,3.82,4.3,1.2-.19,2.14-.36,2.56,1.05,.53,1.77-.89,1.53-1.85,1.82-2.63,.79-3.62,3.4-2.07,5.77,.7,1.08,1.55,2.14,.38,3.14-1.48,1.27-1.93-.59-2.73-1.26-1.71-1.45-4.39-.99-5.19,1.09-.43,1.1-.56,2.12-2.08,1.69-.96-.27-1.01-.42-.86-3.36Z"/>
  <path class="cls-12" d="M107.72,360.85c3.99-.07,7.17,2.91,7.3,6.82,.12,3.76-3.1,7.23-6.85,7.39-3.94,.17-7.27-2.86-7.41-6.73-.15-4.19,2.86-7.41,6.96-7.48Z"/>
  <path class="cls-8" d="M189.94,481.02c.99,.22,2.2-.94,2.6,.52,.36,1.35-.82,1.92-1.86,2.2-8.47,2.29-16.35,5.95-23.94,10.3-1.16,.66-1.96,.57-2.5-.82-.66-1.67-1.16-3.2,1.07-4.08,4.45-1.75,8.83-3.68,13.34-5.24,3.71-1.28,7.47-2.53,11.28-2.89Z"/>
  <path class="cls-8" d="M632.31,331.83c-1.32-1.15-4.55,1.38-4.52-2.15,.02-1.9-.76-5.02,2.06-5.5,2.71-.46,6.36,4.07,5.82,6.72-.43,2.08-2.18,.38-3.35,.93Z"/>
  <path class="cls-8" d="M228.11,528.79c-1.89-.51-3.23-1.36-3.05-3.23,.17-1.78,1.46-2.82,3.22-2.67,1.54,.14,2.77,1.16,2.62,2.85-.14,1.69-1.29,2.72-2.79,3.05Z"/>
  <path class="cls-8" d="M237.81,511.83c-1.2-.04-2.48-.89-2.55-2.43-.07-1.75,.99-3.3,2.91-3.36,1.55-.05,2.64,1.08,2.76,2.71,.13,1.83-.83,2.88-3.12,3.08Z"/>
  <path class="cls-8" d="M232.82,514.22c1.85,.13,3.2,.77,3.18,2.74-.02,1.62-1.05,2.81-2.59,2.9-1.65,.1-3.18-.89-3.29-2.61-.1-1.62,.93-2.89,2.7-3.04Z"/>
  <path class="cls-8" d="M285.79,103.16c-.02,1.75-1.27,2.3-2.61,2.32-1.55,.03-2.39-1.12-2.37-2.57,.02-1.57,1.16-2.28,2.63-2.29,1.66-.01,2.2,1.12,2.34,2.54Z"/>
  <path class="cls-8" d="M259.86,95.45c-1.64-.27-2.3-1.22-2.28-2.52,.02-1.79,1.31-2.52,2.85-2.48,1.38,.03,2.09,1.12,2.11,2.44,.03,1.91-1.55,2.11-2.68,2.57Z"/>
  <path class="cls-8" d="M275.41,102.23c-1.52-.17-2.46-1.06-2.61-2.46-.16-1.55,.88-2.45,2.31-2.56,1.54-.12,2.37,.91,2.53,2.36,.18,1.63-.97,2.23-2.24,2.66Z"/>
  <path class="cls-8" d="M269.78,96.38c-.08,1.55-1.08,2.41-2.52,2.39-1.53-.02-2.32-1.17-2.31-2.65,.02-1.4,.92-2.12,2.3-2.21,1.7-.1,2.25,1.01,2.52,2.47Z"/>
  <path class="cls-8" d="M587.99,467.43c.23,.26,.45,.51,.68,.77,0,0,.05-.06,.05-.06-.46,.42-.77,.07-1.1-.2,.12-.17,.25-.34,.37-.51Z"/>
  <path class="cls-7" d="M296.63,283.07c-8.14,1.17-15.28-1.03-22.19-2.69-7.07-1.7-14.41-3.42-20.84-7.43-2.52-1.57-4.12-3.85-5.89-5.96-1.46-1.74,1.17-6,4.41-6.9,4.85-1.35,9.71-2.78,14.61-3.95,5.83-1.38,11.47-1.3,17.08-1.02,5.68,.28,11.6,.61,16.83,3.75,1.3,.78,3.2,.61,4.83,.97,6.96,1.53,12.47,5.3,17.26,10.36,1.88,1.99,1.71,4.03,.04,6.08-2.66,3.26-6.37,4.65-10.28,5.09-5.54,.61-10.88,3.14-15.86,1.7Z"/>
  <path class="cls-13" d="M11.6,14.23c2.21,3.36,2.36,7.04,3.51,10.36,4.2,12.11,11.61,21.75,21.34,29.96,6.06,5.11,6.82,12.95,3.13,18.66-3.09,4.79-6.99,8.85-11.25,12.49-7.52,6.42-14.38,13.29-18.5,22.47-.25,.56-.48,1.23-1.13,1.23-.95,.01-.94-.93-1.17-1.56-1.67-4.51-2.37-9.28-3.09-13.97-.92-6-1.62-12.12-1.54-18.17,.19-13.62,1.69-27.14,4.35-40.53,1.23-6.2,2.31-12.42,3.49-18.63,.13-.67,.48-1.31,.86-2.3Z"/>
  <path class="cls-5" d="M313.33,177.96c.1,6.55-3.09,11.24-8.45,14.53-1.26,.77-1.53,1.6-1.67,2.83-.52,4.43-2.65,7.47-6.67,9.88-7.06,4.23-14.72,4.56-22.47,4.7-2.61,.04-4.39-2.15-5.97-3.95-3.03-3.46-4.99-7.34-5.45-12.19-.27-2.85-2.18-5.45-2.16-8.72,.05-6.94,3.81-11.53,9.06-14.89,3.6-2.3,6.7-4.96,9.54-8.03,3.9-4.22,8.55-6.92,14.41-7.01,7.83-.12,12.79,3.73,14.72,11.42,.47,1.86,1.1,3.18,3.01,4.06,3.41,1.56,1.39,4.88,2.11,7.37Z"/>
  <path class="cls-14" d="M369.38,200.92c-6.47,1.24-11.95-1.61-17.2-5.17-2.12-1.43-4.01-3.07-4.34-5.85-.16-1.39-1.35-1.89-2.24-2.64-6.55-5.51-5.33-17.5,2.22-21.53,2.32-1.24,4.62-2.57,7.34-2.74,.76-.05,1.29-.38,1.83-.94,4.87-5.06,10.9-4.85,16.98-3.29,4.39,1.13,8.68,2.76,12.59,5.17,1.68,1.04,3.49,.65,5.25,.69,3.95,.09,8.34,3.67,9.09,7.53,1.26,6.45-1.48,12.68-7.21,15.81-2.13,1.16-3.28,2.57-4.14,4.95-1.25,3.48-4.21,5.73-7.91,6.69-3.95,1.02-7.92,1.94-12.27,1.33Z"/>
  <path class="cls-3" d="M499.26,279.91c-2.13-.16-5.02,.38-7.86-.48-9.05-2.74-14.18-9.87-14.34-19.47-.1-5.9,.4-11.72,1.18-17.55,.85-6.38,6.32-11.1,12.86-11.1,5.7,0,11.5-.63,16.51,3.21,1.46,1.12,2.87,2.27,3.67,3.87,2.15,4.33,5.43,7.83,8.3,11.62,.52,.68,1.06,1.31,1.07,2.21,.11,7.02,.58,14.13-2.23,20.79-1.15,2.74-3.07,4.49-6.45,5.45-4.03,1.14-7.93,1.49-12.71,1.45Z"/>
  <path class="cls-6" d="M458.53,207.46c1.6,7.32-1.45,12.99-6.24,18.17-4.38,4.74-15.28,5.52-19.89,1.03-1.24-1.21-2.76-1.32-4.11-1.98-5.64-2.75-5.87-8.29-7.1-13.28-.46-1.88-1.08-3.54-2.16-5.2-3.91-6.01-.77-19.13,5.31-22.96,4.11-2.58,14.21-1.46,17.57,2.03,.85,.88,1.55,1.67,2.89,1.86,8.84,1.25,13.72,6.86,13.71,15.64,0,1.56,0,3.12,0,4.67Z"/>
  <path class="cls-11" d="M540.58,387.41c-3.53,.19-7.15-.15-10.41-2.39-1.52-1.05-3.36-2.2-3.6-3.84-.98-6.55-6.23-11.82-5.42-18.86,.62-5.37,1.26-10.7,5.26-14.85,.33-.34,.66-.73,.83-1.16,3.26-7.9,10.19-6.37,16.44-6.26,2.2,.04,3.99,1.81,5.11,3.48,2.05,3.06,4.18,5.99,6.59,8.8,5.25,6.12,6.29,13.49,5.45,21.26-.73,6.82-7.68,14.69-20.26,13.83Z"/>
  <path class="cls-9" d="M515.2,446.64c-1.8,0-3.6,.1-5.39-.02-3.03-.2-6.48-3.01-6.42-5.78,.17-8.07,.17-16.19,1.19-24.17,.88-6.88,5.92-10.32,12.94-10.3,2.15,0,4.31,.04,6.46,.13,.57,.02,1.02,.26,1.61-.22,4.29-3.52,9.26-2.82,14.22-2.22,2.9,.35,4.6,2.18,5.22,4.76,1.38,5.71,1.88,11.53-2.2,16.42-2.59,3.11-2.47,7.27-5.13,10.41-6.35,7.49-12.93,10.99-22.5,10.99Z"/>
  <path class="cls-13" d="M516.83,308.03c-.2-4.46-.24-8.37,2.3-11.85,1.28-1.75,2.91-2.58,4.84-3.42,6.2-2.7,12.01-7.67,19.2-2.45,.58,.42,1.26,.8,1.65,1.36,5.81,8.38,9.11,17.48,7.68,27.84-.34,2.43-7.67,8.29-10.42,8.46-6.48,.39-12.8-.48-19.01-2.37-2.02-.62-3.15-1.58-2.9-3.8,.11-.97,.04-1.99-.65-2.73-3.14-3.33-2.96-7.41-2.68-11.05Z"/>
  <path class="cls-1" d="M46.14,224.6c.29,.19,.55,.39,.15,.71-.01,.01-.26-.28-.4-.42,.08-.09,.17-.19,.25-.28Z"/>
  <path class="cls-1" d="M89.06,204.02c.13,.08,.26,.16,.39,.24-.07,0-.19,.02-.21-.01-.06-.08-.08-.19-.12-.3,0,0-.06,.07-.06,.07Z"/>
  <path class="cls-8" d="M617.57,254.92c.04,1.16-.79,1.5-1.55,1.79-5.31,2.08-10.49,4.53-16.26,5.19-.64,.07-1.39,.81-1.76-.2-.29-.81,.31-1.31,1.07-1.55,5.68-1.8,11.14-4.13,16.38-6.99,1.88-1.03,1.68,.92,2.13,1.76Z"/>
</svg>