<?xml version="1.0" encoding="UTF-8"?>
<svg id="Layer_1" data-name="Layer 1" xmlns="http://www.w3.org/2000/svg" viewBox="0 0 464.8 451.13">
  <defs>
    <style>
      .cls-1 {
        fill: #52308f;
      }

      .cls-2 {
        fill: #da3532;
      }

      .cls-3 {
        fill: #56c2ca;
      }

      .cls-4 {
        fill: #603913;
      }

      .cls-5 {
        fill: #c49a6c;
      }

      .cls-6 {
        fill: #8b5e3c;
      }

      .cls-7 {
        fill: #f7f6f5;
      }

      .cls-8 {
        fill: #3bb149;
      }

      .cls-9 {
        fill: #9c948f;
      }

      .cls-10 {
        fill: #da9c27;
      }

      .cls-11 {
        fill: #70665b;
      }

      .cls-12 {
        fill: #5d3e1b;
      }

      .cls-13 {
        fill: #46479b;
      }

      .cls-14 {
        fill: #413427;
      }
    </style>
  </defs>
  <path class="cls-4" d="M114.19,341.82c1.14-.08,2.7-.03,4.28-.21,2.34-.28,4.27-1.32,6.03-2.72,2.08-1.65,4.37-2.99,6.44-4.66,1.33-1.07,2.83-2.01,4.29-2.95,1.87-1.2,2.23-1.17,3.78,.53,.83,.92,1.59,1.9,2.39,2.86,.37,.45,.39,.91,0,1.34-.39,.43-.8,.84-1.21,1.25-2.7,2.69-5.3,5.51-8.14,8.05-5.51,4.93-10.61,10.26-15.89,15.42-.18,.17-.35,.35-.55,.51-.75,.6-1.42,.61-1.92-.14-.69-1.04-1.51-1.96-2.16-3.03-1.19-1.98-2.52-3.89-3.9-5.75-.73-.99-.59-1.55,.4-2.26,.81-.58,1.66-1.1,2.49-1.65,.42-.27,.88-.49,1.24-.82,.58-.52,1.68-.92,1.27-1.85-.32-.74-1.34-.39-2.05-.37-2.77,.1-5.43-.28-8-1.43-2.77-1.24-4.77-3.26-6.26-5.81-.4-.69-.64-1.56-.71-2.36-.3-3.35-.1-6.64,1.83-9.58,.77-1.18,1.51-2.38,2.31-3.54,.49-.71,.94-.81,1.72-.53,.31,.11,.59,.3,.9,.42,1.09,.43,1.71,.26,2.35-.65,.37-.52,.34-1.12-.14-1.57-.3-.28-.69-.46-.99-.74-.58-.53-.62-1.14-.13-1.77,.25-.32,.55-.62,.86-.9,.41-.37,.88-.43,1.38-.16,.36,.2,.71,.42,1.08,.62,1.11,.61,1.61,.53,2.35-.38,.45-.56,.43-1.04-.08-1.52-.12-.11-.27-.2-.4-.3-2.17-1.78-1.57-1.81-.19-3.77,.31-.44,.85-.53,1.35-.27,.66,.34,1.26,.8,1.94,1.1,.88,.39,2.08-.41,2.19-1.4,.05-.45-.17-.8-.49-1.08-.5-.43-1.07-.8-1.51-1.27-.52-.55-.35-1.3,.34-1.97,.58-.57,1.24-.66,1.76-.15,3.04,2.95,6.62,5.22,9.9,7.86,.19,.16,.37,.33,.55,.51,.41,.42,.46,.9,.06,1.32-.57,.6-1.14,1.21-1.8,1.71-2.78,2.09-5.35,4.44-8,6.68-1.9,1.6-3.82,3.17-5.71,4.78-1.59,1.35-2.97,2.89-4,4.72-1.54,2.74-.73,5.36,2.08,6.85,1.34,.72,2.71,1.2,4.26,1.05,.66-.06,1.33-.01,2.42-.01Z"/>
  <path class="cls-4" d="M259.79,67.28c0,.39-.21,.69-.52,.79-.86,.27-1.75,.52-2.64,.69-.72,.13-1.24-.21-1.53-.97-.63-1.62-1.21-3.26-1.81-4.89-.17-.47-.32-.94-.48-1.41-.54-1.51-1.54-2.23-3.22-2.14-1.99,.1-4.01-.2-5.97,.08-3.22,.45-6.45,.34-9.67,.43-1.39,.04-1.9,.49-2.32,1.81-.91,2.84-1.83,5.68-2.74,8.52-.13,.39-.24,.8-.4,1.18-.35,.81-1.02,1.12-1.82,.71-1.03-.52-2.03-1.12-3.01-1.74-1.61-1.02-3.21-2.06-4.78-3.14-1.21-.83-1.23-1.16-.7-2.47,2.08-5.15,4.63-10.08,6.71-15.23,1.68-4.13,3.67-8.14,5.52-12.2,.82-1.81,1.62-3.63,2.45-5.44,1-2.18,2.05-4.33,3.03-6.52,.58-1.29,1.51-1.9,2.93-1.83,1.17,.06,2.3-.15,3.44-.41,1.1-.25,1.51,.02,1.89,1.06,1.84,4.97,3.65,9.94,5.49,14.91,1.95,5.28,3.93,10.54,5.85,15.83,1.44,3.96,2.81,7.95,4.21,11.93,.05,.15,.06,.32,.08,.47Zm-22.79-17.91c.59,.02,1.22-.17,1.86-.35,1.43-.42,2.88-.76,4.31-1.17,.96-.27,1.91-.55,2.84-.9,.95-.35,1.15-.76,.87-1.72-.66-2.3-1.25-4.64-2.07-6.86-1.02-2.79-1.91-5.62-2.79-8.45-.05-.15-.12-.31-.2-.45-.03-.06-.13-.14-.18-.13-.15,.03-.36,.05-.42,.15-.17,.28-.3,.59-.4,.9-1.19,3.87-2.38,7.74-3.54,11.62-.57,1.9-1.09,3.82-1.58,5.74-.28,1.11,.13,1.62,1.28,1.61Zm10.18,1c-.85,.02-1.6,0-2.29,.36-.74,.38-1.55,.55-2.35,.76-1.99,.55-3.95,1.23-5.94,1.77-1.12,.3-1.61,1.07-1.89,2.07-.11,.39,.21,.89,.62,.9,.49,.02,1,.05,1.47-.07,.73-.19,1.45-.31,2.2-.31,2.56,.03,5.07-.73,7.65-.57,.32,.02,.64-.14,.97-.2,2.63-.54,2.73-.73,1.69-3.15-.03-.08-.07-.15-.1-.23-.38-.96-1.07-1.44-2.02-1.34Zm-19.18,5.69c-.12-.45-.24-.77-.59-.89-.37-.13-.6,.07-.76,.41-1.47,3.08-2.34,6.36-3.36,9.59-.07,.21-.02,.51,.06,.72,.21,.5,1.29,.96,1.95,.84,.58-.1,.8-.57,.9-1.07,.47-2.26,1.01-4.51,1.34-6.79,.14-.97,.34-1.95,.45-2.81Z"/>
  <path class="cls-4" d="M146.64,101.17c-1.35-.02-2.92,.07-4.47-.36-.62-.17-1.32-.09-1.98-.09-2.99-.02-5.98-.06-8.97-.03-1.3,.01-2.51,1.71-2.2,2.99,.07,.3,.27,.61,.5,.84,1.11,1.12,2.15,2.33,3.39,3.29,2.84,2.2,5.16,4.93,7.74,7.38,.73,.69,.71,1.05,.16,1.98-.29,.5-.62,.98-.96,1.45-.74,1.05-1.21,1.17-2.27,.59-.22-.12-.45-.23-.63-.39-3.36-3.08-7.31-5.43-10.69-8.5-1.34-1.22-2.88-2.23-4.33-3.33-1.98-1.5-3.97-2.99-5.93-4.51-2.61-2.03-5.19-4.12-7.81-6.14-2.36-1.82-4.75-3.6-7.12-5.39-.13-.1-.26-.21-.38-.32-.84-.78-.83-1.55,.04-2.32,.41-.36,.85-.5,1.34-.14,.07,.05,.13,.1,.2,.15,1.92,1.27,2.11,1.26,3.76-.39,.35-.35,.7-.71,1.02-1.09,.42-.5,.46-1.04,.1-1.6-.27-.42-.57-.82-.79-1.26-.38-.74-.14-1.42,.64-1.88,.3-.18,.63-.2,.94-.01,.21,.13,.39,.3,.58,.46,.56,.47,.99,1.26,1.85,1.08,1.02-.21,1.64-1.08,2.35-1.76,.38-.36,.31-.94,.18-1.42-.16-.55-.43-1.08-.62-1.62-.28-.81,.22-1.46,1.1-1.48,.76-.02,1.18,.38,1.53,1.04,.74,1.41,1.1,1.6,2.51,1.27,.89-.21,1.78-.36,2.69-.46,.82-.09,1.11-.43,1.26-1.3,.07-.41,.05-.83,.12-1.24,.05-.34,.23-.62,.61-.69,.46-.09,.82,.11,1.07,.47,.3,.43,.33,.95,.27,1.44-.2,1.57,.59,2.47,1.92,3.13,.88,.44,1.6,1.3,2.51,1.52,.97,.23,1.79-.73,2.72-1.06,.53-.19,.97-.1,1.3,.38,.41,.6,.42,1.13,.02,1.59-.11,.12-.23,.24-.35,.35-.53,.49-1.4,.65-1.54,1.52-.12,.71,.37,1.25,.58,1.87,.13,.39,.22,.8,.34,1.19,.33,1.06,.52,1.19,1.58,1.07,.33-.04,.65-.13,.98-.15,.99-.04,1.56,.42,1.76,1.38,.13,.6-.18,1.21-.77,1.38-.55,.16-1.15,.19-1.7,.36-.52,.16-.82,.57-.8,1.13,.02,.56,.39,.94,.91,1.05,.97,.21,1.95,.36,2.93,.5,3.68,.53,7.36,1.11,11.06,1.56,1.39,.17,2.83,.14,4.23,.02,1.62-.13,3-.89,4.11-2.1,.64-.69,1.02-1.51,1.06-2.46,.02-.41,0-.83,.04-1.24,.03-.22,.14-.56,.29-.61,.39-.12,.59,.23,.72,.53,.19,.45,.42,.93,.45,1.41,.07,1.16,.11,2.33,0,3.48-.12,1.21-.85,2.17-1.78,2.89-2.09,1.61-4.48,2.47-7.12,2.61-.66,.03-1.33,0-2.22,0Zm-18.23-6.69c0-.81,0-1.31,0-1.81,.01-.91-.34-1.51-1.22-1.94-3.49-1.72-6.98-3.46-10.39-5.34-1.85-1.02-3.31-.63-4.75,.63-.58,.51-.7,1.18-.22,1.75,.48,.57,.98,1.16,1.58,1.57,1.26,.84,2.27,1.93,3.33,2.97,2.48,2.45,4.94,4.91,7.42,7.35,.41,.41,.82,.82,1.29,1.17,.37,.27,.8,.2,1.12-.13,.23-.23,.52-.49,.59-.78,.46-1.91,1.61-3.68,1.24-5.45Z"/>
  <path class="cls-4" d="M301.74,79.81c-1.08,.07-2.47-.66-3.69-1.7-1.08-.91-1.93-2.01-2.66-3.25-1.59-2.74-2.72-5.67-3.91-8.58-1.1-2.68-2.23-5.36-3.38-8.02-.59-1.35-2.8-1.96-4.02-1.13-.25,.17-.47,.49-.57,.78-.52,1.49-1.17,2.92-1.6,4.44-.94,3.35-2.06,6.64-3.11,9.96-.16,.51-.53,.83-1.06,.93-.16,.03-.33,.06-.49,.06-4.49,.06-3.96,.08-3.17-3.65,.66-3.15,1.26-6.32,1.94-9.47,.54-2.51,1.14-5.01,1.76-7.5,.28-1.12,.74-2.2,.71-3.39,0-.16,.04-.33,.09-.49,1.3-3.68,1.67-7.58,2.69-11.33,.78-2.86,1.14-5.83,1.75-8.75,.2-.97,.55-1.91,.88-2.85,.25-.71,.7-.96,1.31-.85,.65,.12,1.04,.5,1.13,1.15,.06,.41,.09,.83,.05,1.24-.08,.98,.41,1.56,1.27,1.9,.61,.25,1.22,.53,1.85,.72,1.17,.37,1.32,.34,1.99-.79,.45-.75,.86-1.43,1.89-1.28,.56,.08,.97,.41,.96,.95,0,.49-.09,.98-.18,1.47-.24,1.35-.17,1.51,1.01,2.18,.29,.16,.58,.32,.89,.45,1.14,.52,1.58,.43,2.4-.49,.22-.25,.37-.55,.58-.81,.54-.65,.97-.74,1.46-.34,.79,.64,.98,1.26,.6,1.93-.39,.69-1.35,1.11-1.1,2.11,.19,.77,.9,1.17,1.36,1.75,.05,.06,.12,.12,.15,.2,.67,1.48,1.75,1.82,3.27,1.36,.84-.25,1.34,.11,1.49,.82,.16,.73-.09,1.39-.9,1.53-1.94,.33-2.3,1.5-2.6,3.28-.36,2.15-.15,3.68,1.92,4.7,.46,.23,.63,.77,.32,1.3-.42,.7-1.05,.98-1.65,.74-.23-.09-.45-.21-.67-.33q-1.59-.85-2.88,.42c-.12,.12-.23,.24-.35,.35-1.59,1.62-1.96,1.61-.52,3.72,.37,.53,.47,1.07,.01,1.59-.51,.57-1.39,.68-2.04,.2-.46-.34-.85-.79-1.29-1.17-.39-.34-.85-.6-1.35-.28-.48,.31-.47,.87-.36,1.35,.24,1.05,.51,2.09,.83,3.12,1.06,3.4,2.18,6.78,3.19,10.2,.63,2.12,1.63,3.98,3.19,5.53,1.01,1,2.15,1.51,3.6,1.14,.88-.23,1.78-.4,2.68-.54,.19-.03,.51,.14,.59,.3,.08,.17,.01,.53-.13,.66-1.57,1.44-3.36,2.4-6.16,2.46Zm-6.35-39.22c0-1-.03-2.07,0-3.15,.04-1.23-.53-2.01-1.6-2.55-1.98-.99-2.44-1.31-3.16,1.13-.07,.24-.15,.47-.22,.71-1.45,4.3-2.85,8.62-4.4,12.89-.4,1.11-.58,2.22-.8,3.35-.09,.5,.21,.76,.68,.83,2.74,.41,5.21-.57,7.65-1.56,.9-.37,1.35-1.17,1.35-2.19,0-1.24-.16-2.52,.1-3.71,.4-1.89,.34-3.78,.4-5.75Z"/>
  <path class="cls-4" d="M414.99,129.27c.45,4.18-1.13,7.71-3.68,10.79-3.56,4.29-8.15,7.13-13.7,7.87-3.17,.42-6.49,.54-9.49-1.13-4.77-1.34-8.58-4.18-12.07-7.57-2.2-2.14-4.24-4.43-6.21-6.78-.11-.13-.22-.25-.31-.39-1.19-1.8-.98-2.21,.77-3.02,2.03-.94,4.08-1.85,6.12-2.77,1.21-.54,2.45-1.02,3.63-1.62,4.29-2.19,8.77-3.93,13.13-5.95,3.9-1.81,7.8-3.64,11.71-5.44,1.28-.59,2.58-1.15,3.88-1.68,.88-.36,1.11-.29,1.57,.61,1.37,2.66,2.29,5.5,3.21,8.34,.15,.47,.25,.96,.4,1.43,.78,2.38,1.34,4.79,1.05,7.31Zm-2.54-3.27c-.03-.31-.04-.47-.07-.63-.44-1.93-.87-3.87-1.35-5.8-.34-1.37-.89-1.61-2.16-1.07-.46,.19-.9,.42-1.34,.66-1.82,.98-3.64,1.98-5.46,2.97-2.33,1.27-4.63,2.58-6.99,3.81-2.27,1.18-4.45,2.51-6.68,3.75-3.54,1.98-7.12,3.91-10.67,5.87-1.07,.59-1.17,1.09-.39,1.93,1.64,1.76,3.38,3.41,5.38,4.79,.96,.66,1.91,.99,2.95,.11,.3-.25,.76-.3,1.14-.48,1.35-.62,2.75-1.17,4.03-1.9,1.61-.92,1.58-.99,2.74,.48,.1,.13,.16,.29,.27,.42,.52,.6,1.03,.7,1.77,.38,.75-.33,1.03-.78,.9-1.56-.07-.41-.27-.79-.32-1.2-.1-.68,.39-1.37,1.15-1.75,.5-.25,1.08-.14,1.56,.4,.39,.43,.68,.94,1.06,1.37,.15,.17,.42,.3,.64,.31,1.19,.07,1.95-1,1.55-2.11-.17-.47-.41-.91-.52-1.39-.17-.73,.48-1.53,1.58-1.96,.63-.25,.86,.31,1.16,.68,.31,.39,.59,.8,.92,1.17,.24,.27,.6,.29,.92,.18,.89-.31,1.4-1.17,1-1.94-1.34-2.6-.26-2.76,1.4-3.91,.55-.38,1.13-.7,1.65-1.11,.64-.52,1.25-1.09,1.82-1.69,.21-.22,.28-.58,.37-.76Z"/>
  <path class="cls-4" d="M128.89,368.46c-.18-4.08,1.12-7.22,3.81-9.72,2.06-1.91,4.49-3.1,7.4-2.99,.25,0,.5,.02,.75,0,4.24-.4,7.47,1.7,10.49,4.29,.83,.71,1.46,1.57,1.93,2.57,.21,.45,.45,.89,.75,1.28,.29,.36,.72,.37,1.12,.13,.52-.3,.84-.77,1.17-1.26,2.01-3.03,3.98-6.09,6.08-9.07,1.72-2.44,3.45-4.86,4.96-7.44,.5-.85,.92-.96,1.88-.7,.4,.11,.8,.22,1.18,.39,2.12,.94,4.23,1.9,6.34,2.87,.38,.17,.76,.36,1.07,.62,.36,.29,.46,.73,.11,1.08-1.93,1.93-3.44,4.22-5.3,6.23-2.59,2.78-5.01,5.72-7.58,8.54-2.5,2.75-4.66,5.81-7.24,8.49-1.84,1.91-3.47,3.98-5.25,5.93-1.84,2.01-3.64,4.07-5.36,6.19-1.9,2.34-3.22,2.42-5.22,.16-.59-.67-.64-.87-.07-1.73,.64-.97,1.02-2.09,1.89-2.92,.17-.16,.26-.42,.37-.64,.16-.35-.17-.94-.54-.94-.41,0-.82,.03-1.22,.11-3.61,.77-6.73-.16-9.34-2.75-.94-.93-1.97-1.78-2.68-2.93-1.15-1.89-1.87-3.89-1.53-5.77Zm22.45-1.06c.01-1.15,.05-2.16-.48-3.06-.68-1.14-1.37-2.26-2.37-3.17-1.28-1.17-1.7-1.2-3.21-.13-.07,.05-.12,.12-.19,.16-.94,.65-1.23,.63-2.18-.15-.38-.32-.73-.68-1.13-.97-.39-.29-1.03-.03-1.24,.44-.22,.48-.26,.98,0,1.43,.25,.43,.61,.78,.89,1.19,.37,.55,.28,1.01-.27,1.52-.53,.5-.94,.52-1.53,.03-.45-.37-.84-.8-1.3-1.15-.27-.21-.63-.19-.92,.03-.27,.21-.49,.49-.44,.84,.05,.31,.17,.63,.32,.92,.26,.52,.59,.99,.83,1.52,.19,.43,0,.81-.4,1.05-.32,.21-.65,.12-.92-.09-.59-.46-1.12-.98-1.73-1.4-.36-.25-.82-.12-1.16,.16-.42,.35-.6,.83-.35,1.33,.22,.43,.6,.79,.87,1.19,.5,.74,.51,1.13-.02,1.79-.36,.45-.79,.85-1.16,1.3-.35,.43-.41,.95-.1,1.39,2.15,3.06,6,4.67,9.32,3.95,1.63-.35,3.11-1.13,4.55-1.98,.35-.21,.66-.51,.92-.82,.63-.77,1.22-1.56,1.8-2.37,1.1-1.52,1.74-3.2,1.59-4.95Z"/>
  <path class="cls-4" d="M55.53,256.57c-.17-4.37,1.26-8.14,4.1-11.42,.32-.37,.68-.72,1.07-1.01,1.64-1.23,2.55-1.07,3.63,.63,.3,.47,.29,.97-.07,1.38-.55,.62-1.17,1.18-1.71,1.81-2.77,3.28-3.69,7-2.37,11.12,1.09,3.39,5.26,5.69,9.41,4.02,2.23-.9,3.96-2.41,5.36-4.31,1.77-2.4,3.36-4.93,5.21-7.27,2.07-2.63,4.74-4.32,8.26-4.38,2.11-.04,4.14,.09,5.92,1.42,2.03,1.51,3.76,3.23,4.74,5.62,.79,1.93,1.46,3.88,1.42,6,0,.25,0,.5,.07,.74,.77,3.19-.39,6.03-1.7,8.81-.56,1.18-1.79,1.73-2.87,2.31-2.53,1.37-6.45,.63-8.23-1.45-1.76-2.06-1.63-6.03,.26-7.74,1.04-.95,3.03-1.07,4.16-.24,.33,.24,.63,.55,.6,1.02-.03,.49-.38,.71-.78,.85-.23,.08-.49,.09-.73,.14-.87,.18-1.2,.78-1.25,1.61-.1,1.7,.43,2.29,2.07,2.37,2.47,.11,3.78-1.09,4.31-3.87,.48-2.5,.02-4.93-1.42-7.14-1.77-2.7-5.64-3.3-8.02-1.14-.99,.9-1.85,1.88-2.42,3.12-1.14,2.49-2.35,4.95-3.56,7.4-1.5,3.03-3.86,5.14-7.03,6.33-.45,.17-.97,.21-1.46,.23-1,.04-2-.06-2.99,.05-2.1,.22-3.88-.71-5.72-1.45-.15-.06-.32-.13-.43-.25-1.69-1.9-3.88-3.31-5.2-5.6-1.1-1.9-1.77-3.94-2.33-6-.32-1.18-.21-2.47-.29-3.71Z"/>
  <path class="cls-4" d="M192.31,404.9c-.73-.06-1.09-.51-1.36-1.03-.26-.5-.18-1.02,.25-1.35,.59-.44,1.28-.76,1.9-1.18,.88-.6,1.03-1.04,.72-2.11-.31-1.03-.57-2.06-.69-3.15-.2-1.82-.68-2.22-2.48-2.47-.25-.03-.5-.03-.74-.08-.52-.11-.94-.37-.96-.96-.02-.58,.42-1.25,.93-1.32,.65-.09,1.32-.1,1.98-.11,.88,0,1.47-.44,1.63-1.25,.38-1.92,1.3-3.57,2.32-5.19,.32-.51,.17-.95-.19-1.35-.33-.37-.69-.72-1.01-1.1-.34-.4-.44-.87-.36-1.4,.12-.88,.92-1.23,1.63-.73,.72,.51,1.17,1.62,2.21,1.4,.77-.16,1.46-.74,2.16-1.16,1.14-.67,2.27-1.37,3.59-1.67,.97-.22,1.33-.89,1.32-1.84,0-.5-.02-1,.02-1.49,.07-.91,.58-1.29,1.51-1.16,.45,.06,.79,.27,.89,.73,.07,.32,.1,.66,.11,.99,.02,1.08,.52,1.68,1.63,1.81,.74,.09,1.46,.29,2.19,.44,2.55,.56,4.91,1.51,6.8,3.4,.23,.23,.48,.46,.74,.67,.51,.42,1.05,.45,1.6,.06,.27-.19,.5-.44,.77-.63,.7-.48,1.18-.4,1.71,.25,.53,.65,.56,1.22,.09,1.8-.1,.13-.22,.25-.33,.37-.39,.41-1.01,.61-1.17,1.24-.2,.81,.25,1.46,.59,2.1,.6,1.13,.9,2.31,.84,3.59-.02,.5-.01,1,.04,1.49,.11,1.11,.46,1.47,1.53,1.59,.58,.06,1.16,.03,1.74,.12,.73,.11,1.13,.68,1.09,1.43-.04,.76-.44,1.29-1.17,1.38-.66,.08-1.32,.08-1.99,.08-.83,0-1.51,.29-1.78,1.09-.6,1.74-1.53,3.3-2.58,4.8-.34,.49-.19,.94,.16,1.35,.22,.25,.47,.47,.68,.73,.78,.93,.76,1.21-.11,2.07-.79,.79-1.32,1.02-2.17-.15-.81-1.11-1.23-1.2-2.29-.48-2.34,1.58-4.92,2.32-7.69,2.55-.74,.06-1.23,.45-1.4,1.2-.09,.4-.16,.82-.31,1.2-.32,.84-.82,1.11-1.75,1.05-1.03-.07-1.41-.65-1.09-1.69,.05-.16,.14-.3,.19-.46,.39-1.23,.11-1.88-1.15-2.23-2.73-.75-4.88-2.37-6.78-4.39-.64-.68-.94-.73-1.71-.27-.57,.34-1.1,.74-1.66,1.09-.2,.13-.44,.21-.61,.29Zm22.8-14.61c0-.5,.09-1.01-.02-1.48-.41-1.77-.82-3.56-2.39-4.75-1.76-1.33-3.73-1.71-5.87-1.19-1.49,.36-2.73,1.18-3.82,2.21-2.9,2.76-4.09,6.32-4.7,10.14,.37,1.35,.09,2.84,.77,4.1,2.08,3.87,5.87,4.63,9.3,3.04,.79-.37,1.38-1.16,2.07-1.76,3.12-2.73,4.16-6.41,4.66-10.32Z"/>
  <path class="cls-4" d="M175.77,40.64c.12-1.27-.25-2.47-.44-3.7-.12-.76,.18-1.28,.69-1.42,1-.28,1.9-.05,2.16,.65,.29,.77,.49,1.58,.69,2.38,.7,2.84,.76,5.72,.28,8.59-.16,.96-.55,1.93-1.03,2.79-1.01,1.8-1.96,3.65-3.37,5.21-.83,.92-1.59,1.91-2.37,2.87-.63,.77-.47,1.43,.41,1.74,.7,.24,1.43,.42,2.12,.68,3.88,1.47,7.8,2.83,11.6,4.48,2.36,1.02,4.93,1.47,7.15,2.81,.92,.56,1.01,.63,.55,1.51-.97,1.83-1.98,3.64-2.99,5.45-.28,.5-.75,.64-1.28,.42-.38-.16-.76-.34-1.11-.56-4.57-2.86-9.12-5.74-13.69-8.6-1.83-1.15-3.66-2.28-5.5-3.39-.35-.21-.75-.35-1.14-.47-.11-.03-.29,.09-.42,.17-.05,.03-.05,.15-.05,.22,0,.08,0,.17,.04,.24,1.68,3.05,3.37,6.09,5.03,9.15,1.15,2.11,2.25,4.24,3.37,6.36,.35,.66,.33,1.33-.26,1.81-1.4,1.16-2.8,2.33-4.29,3.37-.95,.66-1.65,.37-2.18-.76-.99-2.1-1.94-4.22-2.88-6.34-1.01-2.27-1.94-4.58-3.02-6.82-2.02-4.18-3.85-8.45-5.67-12.72-.58-1.37-1.31-2.68-1.94-4.04-.59-1.28-1.13-2.58-1.68-3.88-.27-.62-.12-1.11,.42-1.52,.8-.59,1.48-1.34,2.44-1.7,.51-.19,.98-.18,1.33,.29,.35,.47,.74,.92,.98,1.44,1.47,3.16,3.58,5.97,4.91,9.2,.18,.45,.52,.85,.83,1.23,.46,.54,.99,.6,1.51,.1,.96-.91,1.97-1.81,2.79-2.84,1.59-2.01,3.05-4.12,4.17-6.46,1.21-2.53,1.67-5.18,1.82-7.92Z"/>
  <path class="cls-4" d="M402.09,197.48c-.21-1.52,.21-3.17,.96-4.79,.81-1.75,2.11-2.72,4.03-2.83,.58-.03,1.16-.02,1.74,0,2.92,.09,4.69,1.92,4.73,4.9,.01,.98,.07,1.95-.53,2.87-.9,1.39-2.22,1.91-3.74,2.11-.31,.04-.7,0-.96-.16-1.06-.62-2.44-1.74-2.22-3.57,.13-1.1,.72-1.77,1.89-1.95,.5-.08,.97,.5,.76,.98-.09,.22-.31,.39-.43,.6-.29,.5-.17,.96,.25,1.33,.34,.3,.76,.36,1.16,.2,1.07-.42,1.51-1.51,1.33-3.18-.12-1.13-.76-1.97-1.79-2.09-.81-.1-1.67-.11-2.48,.04-1.2,.22-1.83,1.19-2.06,2.26-.36,1.62-.36,3.3,.07,4.93,.14,.54,.5,1.05,.87,1.49,2.27,2.68,6.33,2.91,8.86,.48,2.09-2.01,4.03-4.13,5.54-6.67,1.21-2.04,2.47-4.1,4.32-5.72,2.93-2.55,7.47-3.33,10.67-1.51,2.05,1.16,3.71,2.75,4.48,5.12,.8,2.45,1.58,4.89,1.42,7.52-.05,.84-.08,1.64-.58,2.38-.22,.33-.28,.77-.4,1.16-1.28,4.17-5.54,5.95-9.56,4.18-2.74-1.2-3.8-3.3-3.92-6.07-.08-1.74-.08-3.45,.92-5.05,1.09-1.73,2.72-2.14,4.5-2.05,1.71,.09,2.89,1.12,3.55,2.72,.49,1.18,.56,2.41,.47,3.67-.07,.97-.71,1.45-1.52,1.79-.84,.35-1.62,.28-2.31-.37-.55-.52-1.11-1.03-1.08-1.87,0-.15,.06-.35,.16-.45,.09-.08,.32-.09,.43-.03,.28,.17,.51,.43,.8,.59,.67,.38,1.35,.03,1.47-.72,.2-1.23-.91-2.65-2.22-2.85-1.37-.21-2.53,.58-2.66,1.96-.18,1.83-.23,3.67,1.32,5.09,.57,.53,1.18,.91,1.98,.9,.66,0,1.33,.05,1.99-.01,1.42-.13,2.5-.8,3.2-2.07,1.49-2.71,1.04-7.39-1.06-9.6-1.03-1.08-2.26-1.98-3.93-1.82-.33,.03-.67,.02-1,0-1.94-.13-3.36,.77-4.4,2.31-1.68,2.48-2.91,5.21-4.12,7.94-.77,1.73-1.52,3.47-2.87,4.88-1.05,1.09-2.23,1.95-3.61,2.6-1,.47-2,.79-3.11,.75-.75-.03-1.5-.04-2.24,0-2.66,.16-4.56-1.13-6.16-3.1-2.12-2.63-3.04-5.62-2.93-9.23Z"/>
  <path class="cls-4" d="M86.13,287.57c1.21,0,1.46,.19,1.96,1.47,.3,.77,.57,1.56,.92,2.31,.24,.52,.72,.68,1.25,.48,.38-.14,.76-.33,1.1-.56,.53-.36,.7-.9,.44-1.53-.31-.77-.71-1.5-1.06-2.25-.24-.53-.5-1.05-.66-1.61-.17-.6,0-1.17,.51-1.56,.53-.4,1.07-.79,1.64-1.13,1.5-.91,1.91-.76,2.51,.89,.4,1.09,.75,2.2,1.15,3.29,.63,1.72,.86,1.77,2.48,1.07,2.05-.89,4.07-1.85,6.23-2.46,.47-.13,.9-.4,1.35-.6,1.3-.59,1.91-.4,2.61,.91,.86,1.61,1.57,3.31,2.52,4.86,.65,1.08,1.05,2.25,1.59,3.36,.4,.82,.18,1.23-.73,1.45-1.61,.39-3.24,.68-4.85,1.06-1.93,.46-3.86,.95-5.78,1.46-.45,.12-.7,.45-.57,.94,.24,.88,.32,1.79,.75,2.62,.3,.59,.48,1.23,.68,1.87,.07,.22,.08,.51,0,.72-.36,.87-2.47,1.1-3.08,.34-.21-.26-.36-.56-.51-.85-.42-.81-.81-1.64-1.23-2.45-.88-1.68-2.05-2.13-3.89-1.54-.58,.18-1,.76-.81,1.36,.4,1.24,.23,2.66,1.18,3.75,.26,.3,.39,.74,.49,1.13,.11,.43-.01,.87-.5,.98-.88,.21-1.78,.39-2.68,.52-.74,.1-1.33-.25-1.6-.93-.36-.92-.66-1.87-.92-2.83-.57-2.06-1.07-2.44-3.23-1.97-2.35,.51-4.72,.97-7.02,1.59-2.55,.69-5.15,1.2-7.7,1.92-1.3,.37-1.53,.21-2.21-.93-1.63-2.73-1.54-3.05,1.5-4.4,2.12-.94,4.28-1.81,6.42-2.69,2.3-.95,4.61-1.86,6.91-2.81,1.66-.69,2.1-1.6,1.6-3.36-.18-.63-.54-1.22-.73-1.85-.34-1.17,.24-1.94,1.46-2.03,.16-.01,.33,0,.5,0Zm20.35,4.64c-.01-1.83-1.15-3.14-2.74-3.15-1.23,0-3.12,1.6-3.15,2.69-.05,1.85,1.25,3.29,2.94,3.26,1.67-.03,3.17-.83,2.95-2.79Zm-10.75-.11c-1.14,0-2.66,1.28-2.62,2.2,.05,1.3,1.34,2.68,2.46,2.63,1.42-.06,2.36-1.02,2.42-2.26,.05-1.14-1.5-2.64-2.25-2.57Z"/>
  <path class="cls-4" d="M391.11,88.22c.44,1.87-.62,3.11-1.95,4.22-1.53,1.28-4.32,.98-5.6-.62-.59-.73-.32-1.72,.6-1.97,.8-.22,1.62-.36,2.32-.84,1.14-.8,1.39-1.75,.77-3.02-.98-2.01-2.98-3.05-5.14-2.6-2.73,.56-4.83,2.12-6.51,4.28-.19,.25-.33,.59-.37,.9-.31,2.23,.04,4.3,1.58,6.05,.33,.37,.71,.71,.99,1.11,.54,.75,.92,1.52,.64,2.54-.18,.65,.17,.92,.81,.81,.32-.06,.63-.21,.95-.27,.48-.08,.74,.21,.7,.74-.03,.33-.16,.65-.14,.97,.02,.41,.32,.53,.7,.44,.5-.11,.94-.92,1.5-.22,.34,.43,.04,.94-.05,1.43-.15,.8,.12,1.01,.96,.85,.32-.06,.63-.2,.95-.24,.13-.02,.38,.09,.42,.19,.07,.21,.14,.53,.03,.67-.97,1.34-1.96,2.67-2.98,3.97-.47,.6-1.22,.66-1.74,.11-.57-.6-1-1.31-1.55-1.93-.95-1.07-1.31-1.18-2.49-.35-3.04,2.15-6.23,4.1-9.19,6.36-1.67,1.28-3.12,1.18-4.78,.29-.44-.24-.89-.46-1.33-.67-4.85-2.31-7.54-6.27-8.77-11.37-.39-1.61-.12-3.07,.64-4.56,1.72-3.34,4.64-5.04,8.01-6.25,2.5-.9,4.91-.16,7.35,.17,.41,.05,.81,.21,1.21,.23,.45,.02,.8-.2,.9-.68,.05-.24,.12-.5,.09-.74-.29-2.11,.92-3.62,2.03-5.18,.19-.27,.44-.51,.7-.7,4.27-3.09,8.67-3.53,13.48-.91,1.15,.63,2.31,1.35,3.04,2.51,.81,1.28,1.44,2.63,1.19,4.26Zm-33.87,14.93c-.03,2.66,1.13,4.65,2.96,5.83,1.49,.96,1.95,.91,3.25-.29,3.23-2.97,5.95-6.43,9.02-9.55,.17-.18,.34-.37,.45-.59,.1-.22,.22-.5,.15-.71-.4-1.35-1.04-2.6-1.89-3.73-.09-.12-.26-.23-.41-.25-1.56-.22-3.18-.46-4.62,.27-1.91,.97-3.8,2.02-5.44,3.42-1.95,1.65-3.37,3.62-3.47,5.6Zm-.53-9c-.03,1.39,.88,2.41,2.19,2.47,1.16,.05,2.28-.98,2.29-2.1,.01-1.17-1.11-2.58-2.13-2.67-1.21-.1-2.32,.99-2.35,2.3Zm7.17-.44c1.09,.02,2.09-.71,2.19-1.61,.11-.95-1-1.9-2.18-1.87-1.06,.03-1.66,.66-1.67,1.74,0,1.08,.6,1.72,1.65,1.74Zm-8.37,3.5c-.99,0-1.65,.53-1.71,1.36-.08,1.08,.83,2.07,1.92,2.08,.87,.01,1.46-.6,1.5-1.57,.06-1.19-.57-1.87-1.72-1.88Z"/>
  <path class="cls-4" d="M416.07,252.84c0-1.25-.04-2.49,.01-3.73,.04-.9,.61-1.37,1.45-1.38,.83-.01,1.4,.46,1.45,1.37,.08,1.32,.04,2.66,.09,3.98,.02,.4,.15,.8,.28,1.19,.08,.26,.76,.26,.86,0,.27-.69,.5-1.39,.73-2.09,.2-.63,.33-1.28,.56-1.9,.3-.78,.91-1.13,1.76-1.12,1.28,.02,1.84,.64,1.51,1.9-.45,1.68-.73,3.39-1.41,5.02-.44,1.05-.53,2.25-.83,3.36-.3,1.12-.62,2.24-1,3.33-.37,1.09-.92,1.42-2.09,1.25-1.06-.16-2.13-.36-3.17-.63-2.35-.61-4.6-1.5-6.64-2.79-2.51-1.6-4.44-3.81-5.31-6.69-.58-1.91-.38-3.96-.07-5.93,.41-2.61,1.65-4.87,3.27-6.9,1.47-1.86,3.55-2.98,5.57-4.11,1.08-.6,2.25-1.07,3.43-1.46,1.33-.44,2.69-.85,4.13-.82,2.65,.06,5.33-.31,7.92,.52,1.82,.58,3.61,1.23,5.27,2.19,2.46,1.41,4.28,3.52,5.5,5.96,2.14,4.3,2.48,8.73-.24,13.02-.94,1.48-2.37,2.52-3.55,3.79-.29,.31-.71,.39-1.15,.39-.51,0-.93-.57-.74-1.04,.06-.15,.11-.32,.22-.44,1.02-1.24,1.1-2.69,1.15-4.22,.09-2.59-1-4.64-2.59-6.53-1.8-2.12-4-3.77-6.51-4.91-3.26-1.49-6.69-2.46-10.34-2.22-1.67,.11-3.3,.49-4.8,1.21-3.24,1.56-5.09,5.46-4.69,8.65,.07,.56,.22,1.18,.53,1.64,1.79,2.67,4.27,4.36,7.47,4.91,.16,.03,.33,.01,.5,.01,.99,0,1.39-.32,1.43-1.29,.04-1.16,.01-2.32,.01-3.49,0,0,.02,0,.03,0Zm17.93-11.45c0-1.18-.87-2.12-1.96-2.14-1.1-.02-1.97,.88-2.02,2.08-.05,1.29,.91,2.34,2.08,2.27,1.07-.06,1.91-1.03,1.9-2.21Zm2.86,4.41c-.1-.94-1.21-1.71-2.19-1.53-.8,.15-1.24,.87-1.15,1.91,.08,.94,.76,1.53,1.65,1.43,.94-.11,1.78-1,1.69-1.81Zm-8.37-6.83c0-1.03-.52-1.66-1.39-1.69-1.02-.03-2.05,.91-1.95,1.79,.09,.84,1.01,1.58,1.93,1.57,.88-.01,1.41-.65,1.41-1.66Z"/>
  <path class="cls-4" d="M432.52,164.1c-.46,2.55-1.16,5.07-3.35,6.89-.62,.52-1.16,.5-1.79-.02-.32-.26-.6-.57-.87-.88-.32-.36-.33-.75,.04-1.09,.24-.22,.52-.41,.78-.62,2.33-1.85,2.64-4.28,1.91-6.96-.35-1.28-.8-2.53-1.27-3.77-.39-1.05-1.09-1.37-2.17-.99-.94,.33-1.85,.73-2.77,1.11-2.69,1.1-5.37,2.2-8.05,3.31-.23,.09-.46,.2-.68,.32-.61,.33-.79,.86-.46,1.46,.48,.87,.99,1.73,1.51,2.58,.83,1.34,1.68,2.67,2.51,4,.18,.28,.37,.55,.51,.85,.36,.82-.05,1.54-.92,1.61-1.4,.12-2.82-.03-4.21,.31-.45,.11-.82-.2-.97-.61-.42-1.17-.79-2.36-1.16-3.54-.35-1.11-.65-2.23-1.03-3.32-.38-1.1-.72-1.27-1.89-.84-2.65,.97-5.28,1.99-7.91,3-1.16,.45-2.31,.93-3.45,1.42-1.26,.54-1.34,.77-.75,2.05,.24,.53,.5,1.05,.79,1.55,.61,1.08,1.23,2.16,1.86,3.23,.44,.75,1.06,1.23,1.98,1.32,.9,.09,1.79,.35,2.7,.43,.92,.08,1.54,.54,2.01,1.28,.18,.28,.33,.58,.48,.87,.8,1.54,.76,1.81-.75,2.81-.97,.64-1.98,1.22-3.01,1.73-.85,.42-1.43,.2-1.91-.56-.18-.28-.33-.58-.46-.88-2.3-5.24-4.97-10.31-7.48-15.44-.07-.15-.15-.3-.21-.45-.37-.88-.25-1.37,.52-1.92,.27-.19,.56-.36,.85-.51,2.6-1.3,5.15-2.72,7.82-3.86,2.68-1.14,5.24-2.5,7.87-3.74,.6-.28,1.19-.6,1.8-.87,1.24-.54,1.4-.5,2.35,.5,.23,.24,.43,.5,.68,.72,.33,.29,.73,.41,1.15,.22,.36-.16,.54-.82,.35-1.33-.12-.31-.32-.58-.48-.87-.23-.39-.27-.78,.06-1.13,.4-.43,1.2-.59,1.6-.27,.32,.25,.55,.61,.84,.91,.23,.24,.46,.48,.73,.66,.37,.24,.78,.24,1.18,0,.4-.23,.57-.6,.5-1.04-.05-.33-.2-.64-.25-.96-.05-.32-.06-.66-.03-.99,.03-.44,.26-.8,.67-.97,.44-.19,.83,0,1.11,.33,.37,.44,.66,.95,1.04,1.39,.36,.41,.84,.52,1.35,.28,.42-.19,.67-.55,.54-.99-.11-.39-.42-.72-.56-1.1-.34-.9-.16-1.37,.68-1.87,.21-.13,.44-.24,.66-.34,1.33-.63,1.66-.56,2.32,.81,1.19,2.46,2.34,4.95,3.44,7.45,1.01,2.3,1.3,4.78,1.7,7.34Z"/>
  <path class="cls-4" d="M328.32,86.62c-.13-.07-.44-.18-.71-.36-2.28-1.51-4.56-3.01-6.82-4.54-.91-.62-.95-.82-.34-1.82,1.55-2.55,2.99-5.16,4.56-7.69,2.27-3.66,4.31-7.46,6.46-11.19,1.41-2.44,2.84-4.86,4.26-7.29,.21-.36,.46-.69,.65-1.06,.53-1.03,.43-1.29-.65-1.91-.65-.37-1.26-.83-1.94-1.11-1.99-.82-3.42-2.32-4.81-3.86-1.45-1.61-1.66-4.67-.54-6.54,.12-.21,.32-.38,.5-.54,.37-.32,1.17-.1,1.22,.36,.08,.74,.12,1.49,.12,2.23,0,.88,.27,1.6,.89,2.24,1.21,1.27,2.46,2.47,4.14,3.12,1.93,.75,3.85,1.54,5.8,2.24,3.75,1.35,7.62,2.33,11.26,3.96,1.42,.64,2.86,1.32,4.03,2.41,.9,.84,.61,2.84-.47,3.39-.39,.2-.82,.25-1.21,.08-.6-.26-1.19-.58-1.75-.93-2.55-1.6-5.32-2.69-8.15-3.66-.39-.13-.8-.22-1.21-.26-.63-.06-1.14,.16-1.44,.76-.26,.52-.54,1.03-.75,1.57-1.75,4.39-3.43,8.8-5.24,13.16-1.05,2.52-2.02,5.08-3.08,7.6-1.19,2.81-2.42,5.61-3.44,8.48-.29,.81-.72,1.21-1.32,1.17Zm5.49-17.93c-.04-1.29-1.17-2.38-2.35-2.26-.94,.09-2.11,1.44-2.09,2.41,.02,1.3,1.17,2.51,2.32,2.33,1.27-.19,2.25-.87,2.12-2.48Zm2.93-6.43c-.04-.99-.94-1.86-1.95-1.87-.91-.01-1.85,1.03-1.8,2,.05,1.03,1,1.94,1.94,1.87,1-.08,1.85-1.02,1.81-2Zm-6.53,13.27c0-.8-.95-1.67-1.86-1.69-.98-.03-1.91,.84-1.98,1.86-.06,.92,.95,1.91,1.93,1.88,.74-.02,1.9-1.27,1.91-2.05Z"/>
  <path class="cls-4" d="M421.03,299.02c-3.67-.07-6.4-.52-9.14-1.28-5.75-1.59-11.28-3.84-16.97-5.58-.55-.17-1.09-.39-1.62-.63-.45-.2-.51-.74-.12-.98,.76-.49,1.53-1,2.32-1.44,2.32-1.28,4.67-2.51,7-3.78,3.79-2.05,7.57-4.11,11.35-6.18,.43-.24,.83-.55,1.2-.87,.45-.39,.33-.97-.22-1.16-3.53-1.2-7.06-2.4-10.59-3.59-.71-.24-1.43-.45-2.11-.74-1.4-.58-1.77-1.26-1.39-2.74,.31-1.2,.75-2.37,1.18-3.53,.28-.74,.75-.86,1.35-.43,.4,.29,.75,.67,1.18,.91,1.48,.86,2.39,1.97,2.17,3.83-.14,1.15,.58,1.85,1.63,2.21,2.03,.7,4.08,1.38,6.11,2.08,3.13,1.09,6.25,2.2,9.38,3.3,.7,.25,1.41,.48,2.12,.69,.8,.24,1.55,.59,2.24,1.06,.45,.31,.38,.99-.1,1.22-5.26,2.41-10.57,4.73-15.93,6.91-1.84,.75-3.57,1.76-5.5,2.3-.08,.02-.15,.07-.22,.11-.28,.19-.58,.4-.48,.78,.05,.21,.23,.46,.42,.55,.75,.35,1.51,.68,2.29,.96,3.35,1.21,6.62,2.63,10.09,3.51,2.37,.61,4.73,.71,7.13,.15,.91-.21,1.5-.02,1.46,.4-.05,.59-.51,.83-.96,1.01-1.96,.77-3.99,1.07-5.24,.95Zm-11.2-12.5c1.1,0,1.75-.64,1.68-1.62-.06-.87-.68-1.37-1.69-1.37-1.09,0-1.75,.64-1.68,1.63,.06,.86,.68,1.37,1.69,1.37Zm6.51-3.09c.72-.03,1.48-.74,1.49-1.38,0-.63-.75-1.34-1.48-1.39-.71-.05-1.3,.66-1.24,1.5,.05,.73,.6,1.3,1.23,1.27Zm-11.85,4.74c-.07-.73-.8-1.23-1.59-1.09-.46,.08-.8,.56-.77,1.07,.06,.83,.7,1.39,1.43,1.25,.57-.11,.98-.66,.93-1.22Z"/>
  <path class="cls-4" d="M189.13,368.08c-.21,.77-.39,1.75-.73,2.67-1.68,4.49-3.35,8.97-4.85,13.52-1.42,4.32-3.14,8.54-4.73,12.8-.12,.31-.2,.64-.38,.91-.24,.38-.63,.57-1.07,.38-.68-.3-1.38-.59-2.01-.98-2.53-1.56-5.06-3.14-7.56-4.76-1.04-.67-1.06-.88-.48-2.04,.29-.59,.62-1.17,.99-1.72,2.65-4,5.33-7.98,7.98-11.99,2.32-3.52,4.62-7.05,6.92-10.59,.68-1.05,1.04-1.18,2.27-.69,.92,.37,1.84,.75,2.75,1.16,.47,.21,.82,.56,.91,1.31Zm-16.88,20.75c-.02,1.82,1.08,3.21,2.61,3.27,1.84,.08,3.32-1.17,3.37-2.83,.05-1.84-1.15-3.1-3.01-3.14-2.05-.05-2.94,.76-2.97,2.7Zm9.49-7.58c.03-1.59-.87-2.57-2.33-2.55-1.38,.03-2.63,1.33-2.64,2.74,0,1.27,1.15,2.21,2.74,2.22,1.32,0,2.2-.95,2.23-2.41Z"/>
  <path class="cls-4" d="M441.45,222.45c0,.99,.03,1.99,0,2.98-.04,.93-.33,1.26-1.18,1.27-1.41,.02-2.85,.13-4.22-.13-1.41-.26-2.79-.32-4.2-.33-4.15-.02-8.3,0-12.44-.04-3.08-.04-6.11,.28-9.13,.86-.4,.08-.82,.11-1.23,.1-.63-.01-1.11-.31-1.35-.91-.12-.31-.23-.62-.32-.94-.71-2.35-.42-2.96,1.99-3.48,2.74-.6,5.51-1.09,8.28-1.56,2.93-.49,5.9-.74,8.85-1.11,2.24-.29,4.45-.35,6.68-.4,.83-.02,1.65-.06,2.46-.26,1.55-.37,3.14-.21,4.71-.15,.7,.02,1.03,.38,1.07,1.12,.05,.99,.01,1.99,.01,2.98,0,0,.01,0,.02,0Zm-14.89-1.66c-.57-.03-1.2,.27-1.65,.95-.27,.41-.12,1.11,.34,1.25,.46,.14,.96,.26,1.44,.25,2.08-.07,4.09,.25,6.09,.81,1.02,.29,2.1,.37,3.16,.49,.33,.04,.64-.16,.76-.51,.12-.36-.06-.63-.37-.81-.14-.08-.28-.18-.44-.23-1.89-.56-3.77-1.16-5.69-1.64-1.11-.28-2.27-.36-3.64-.56Z"/>
  <path class="cls-4" d="M193.57,350.13c-.16,.74-.32,1.22-.37,1.71-.11,1.3,.64,2.22,1.95,2.43,.57,.09,1.16,.08,1.72,.2,.32,.07,.54,.36,.59,.72,.05,.39-.19,.61-.47,.81-.13,.09-.3,.17-.46,.17-1.36,.04-1.77,.99-2.09,2.09-.21,.71-.14,1.29,.35,1.84,.33,.37,.72,.71,.77,1.24,.05,.45-.11,.81-.49,1.06-.32,.22-.64,.13-.92-.07-.27-.2-.49-.44-.75-.66-1.22-1.02-2.66-.86-3.58,.42-.14,.2-.19,.47-.32,.67-.26,.39-.67,.47-1.09,.36-.34-.09-.58-.33-.62-.7-.05-.58-.02-1.16-.11-1.74-.2-1.35-1.01-1.91-2.46-1.69-.41,.06-.8,.22-1.21,.03-.41-.2-.65-.52-.63-.98,.01-.36,.23-.6,.58-.7,.08-.02,.16-.05,.24-.06,.63-.12,1.51,.16,1.78-.57,.39-1.06,1-2.14,.51-3.35-.19-.46-.44-.89-.63-1.36-.13-.31-.1-.64,.04-.96,.21-.47,.9-.71,1.24-.38,.24,.23,.44,.49,.62,.77,.67,1.04,1.66,.93,2.67,.76,.36-.06,.57-.33,.7-.64,.23-.54,.4-1.09,.64-1.62,.24-.53,.68-.69,1.23-.53,.5,.15,.54,.55,.54,.72Z"/>
  <path class="cls-12" d="M68.05,247.8c-.29-2.52,1.58-4.78,4.55-4.66,2.77,.11,4.91,1.99,4.93,4.54,.02,2.47-2.27,5.17-5.09,4.99-2.89-.18-4.41-1.74-4.39-4.87Z"/>
  <path class="cls-12" d="M131.23,326.86c-.01,.38-.35,.73-.85,.9-1.33,.46-2.68,.88-4.02,1.34-3.29,1.13-6.52,2.41-9.56,4.12-1.08,.61-2.16,1.21-3.27,1.77-.95,.48-1.55,.18-1.9-.86-.36-1.07-.15-1.76,.86-2.28,1.32-.69,2.65-1.41,4.05-1.91,3.2-1.14,6.43-2.21,9.68-3.2,1.34-.41,2.75-.54,4.14-.77,.42-.07,.87,.33,.86,.89Z"/>
  <path class="cls-12" d="M421.58,161.49c1.84-.44,2.65,.97,3.5,2.32,.36,.57,.27,.88-.36,1.14-1.14,.47-2.29,.92-3.45,1.32-.58,.2-.95-.02-1.14-.59-.3-.94-.59-1.88-.84-2.83-.24-.87,.04-1.24,.9-1.33,.16-.02,.33-.02,.49-.02,.25,0,.49,0,.89,0Z"/>
  <path class="cls-12" d="M164.75,345.62c-.02,1.05-.62,1.65-1.69,1.65-1.18,0-2.24-.91-2.15-1.84,.1-1.05,.93-2,1.79-2.04,1.14-.06,2.07,.95,2.05,2.23Z"/>
  <path class="cls-12" d="M161.25,350.8c-.02,1.02-.89,1.91-1.88,1.94-1.01,.03-2.06-.97-1.94-1.84,.12-.92,1.1-1.63,2.2-1.6,1,.03,1.64,.61,1.62,1.5Z"/>
  <path class="cls-12" d="M155.78,355.3c.98-.02,2,.93,1.93,1.8-.07,.81-.99,1.62-1.86,1.64-.98,.02-2-.93-1.93-1.81,.06-.8,.98-1.61,1.86-1.63Z"/>
  <path class="cls-12" d="M184.69,60.05c0,1.03-.51,1.66-1.39,1.7-.96,.04-1.88-.92-1.84-1.92,.03-.71,.91-1.4,1.78-1.41,.89,0,1.45,.62,1.46,1.63Z"/>
  <path class="cls-12" d="M176.33,57.83c.02-.9,.84-1.82,1.65-1.86,.72-.03,1.6,.79,1.66,1.55,.07,.88-.95,1.8-1.97,1.77-.78-.03-1.36-.66-1.34-1.46Z"/>
  <path class="cls-12" d="M194.18,66.26c-.9,0-1.45-.6-1.47-1.61-.02-1.02,.49-1.66,1.37-1.72,.99-.07,1.62,.62,1.59,1.74-.02,.99-.58,1.59-1.49,1.59Z"/>
  <path class="cls-12" d="M190.14,62.36c0,.89-.62,1.45-1.59,1.46-.94,.01-1.67-.72-1.7-1.69-.02-.76,.74-1.33,1.74-1.29,.97,.04,1.56,.61,1.55,1.51Z"/>
  <path class="cls-11" d="M334.68,339.87c.39,.03,.78,.07,1.17,.1-.24,.79-.97,.67-1.55,.83,.06-.34,.02-.72,.38-.93Z"/>
  <path class="cls-6" d="M163.62,152.95c-1.22-2.17-2.93-4-4.06-6.24-2.23-4.41-3.9-8.99-4.54-13.89-.47-3.66,.1-7.28,1.05-10.84,.92-3.4,2.54-6.46,4.38-9.44,2.74-4.44,6.32-8.06,10.32-11.37,5.03-4.17,10.61-7.35,16.54-10.04,8.92-4.04,18.29-6.52,27.89-8.16,4.08-.7,8.22-1.1,12.37-1.36,4.81-.3,9.63-.32,14.43-.13,5.97,.23,11.9,1.01,17.8,2,11.12,1.85,21.82,5.02,32.24,9.3,13.23,5.42,25.4,12.62,36.77,21.24,4.58,3.47,8.69,7.46,12.92,11.3,7.6,6.9,14.04,14.81,20.26,22.92,3.89,5.08,7.31,10.44,10.22,16.18,4.17,8.23,8.02,16.59,11.34,25.19,4.02,10.41,6.83,21.15,8.56,32.18,.62,3.94,.92,7.91,1.21,11.88,.16,2.15,.33,4.3,.32,6.46,0,2.57-.16,5.14-.33,7.7-.49,7.22-1.53,14.36-3.57,21.32-1.35,4.62-2.97,9.13-4.91,13.56-1.81,4.12-3.94,8.05-6.1,11.97-1.08,1.95-2.41,3.78-3.68,5.62-2.26,3.28-4.49,6.58-7.25,9.49-1.26,1.32-2.39,2.76-3.6,4.13-2.97,3.38-6.41,6.25-9.77,9.22-2.11,1.87-4.33,3.62-6.49,5.43-2.36,1.98-4.97,3.6-7.53,5.29-1.79,1.18-3.5,2.53-5.5,3.4-.09-.49-.04-1.06-.29-1.45-.69-1.11-.91-2.28-.86-3.56,.02-.4-.03-.89-.25-1.2-.61-.87-.72-1.82-.74-2.83,0-.48-.1-1.02-.34-1.43-1.23-2.14-1.85-4.58-3.25-6.65-.46-.68-.81-1.44-1.43-2.02-.12-.11-.27-.22-.33-.37-1.09-2.51-3.4-3.99-5.08-6-.68-.81-1.39-1.65-2.55-1.91-.37-.09-.75-.39-1-.7-.87-1.07-2.08-1.6-3.25-2.22-.93-.5-2.05-.75-2.51-1.88-.06-.14-.23-.28-.37-.31-1.9-.39-3.36-1.78-5.23-2.25-.48-.12-1.01-.19-1.41-.45-1.35-.85-2.84-1.23-4.36-1.68-1.73-.51-3.39-1.27-5.21-1.47-.16-.02-.33-.09-.45-.19-1.94-1.55-4.23-1.71-6.57-1.69-.84,0-1.66-.02-2.38-.56-.57-.42-1.24-.41-1.91-.41-2.16,0-4.32-.02-6.48,.02-.65,.01-1.3,.21-1.96,.29-.41,.05-.82,.08-1.23,.04-.63-.07-.99-.78-.68-1.31,1.01-1.7,1.87-3.53,3.11-5.05,.9-1.1,1.79-2.11,2.15-3.51,.06-.23,.21-.46,.37-.64,1.38-1.45,2.27-3.21,3.17-4.97,.18-.36,.48-.67,.75-.98,.26-.32,.69-.58,.8-.94,.79-2.58,3.07-3.8,4.89-5.44,.31-.28,.71-.47,.95-.79,1.24-1.65,3.04-2.79,4.19-4.53,.18-.27,.41-.58,.69-.7,1.52-.67,2.74-1.81,4.21-2.59,2.19-1.15,4.46-1.55,6.85-1.91,1.9-.28,3.78-.39,5.69-.4,.41,0,.83,.01,1.24,.06,.44,.05,.79,.26,.89,.73,.09,.44-.04,.82-.38,1.12-1.14,1-2.5,1.73-3.93,2-1.52,.29-2.72,1.17-4.12,1.66-.85,.3-1.62,.81-2.42,1.24-1.38,.73-2.77,1.4-3.59,2.9-.42,.77-1.22,1.34-1.89,1.97-.86,.82-1.65,1.65-1.57,2.96,0,.16-.03,.35-.12,.48-1.3,1.7-.9,3.68-.77,5.53,.11,1.54,.81,2.99,2.2,3.95,1.71,1.18,3.39,2.41,5.63,2.35,.62-.02,1.13,.26,1.55,.69,.64,.65,1.43,.77,2.29,.76,2.33-.02,4.65-.02,6.98,0,.86,0,1.65-.14,2.28-.78,.57-.58,1.29-.75,2.06-.69,1.6,.13,3.11-.45,4.67-.64,1.02-.12,1.96-.79,2.98-1.14,1.87-.64,3.66-1.48,5.48-2.25,.3-.13,.64-.24,.88-.45,.99-.88,1.99-1.75,2.91-2.71,.8-.83,1.59-1.71,1.5-3.02-.02-.23,.12-.48,.24-.7,1.05-2.06,.89-4.04,.04-6.18-.54-1.36-1.31-2.66-1.55-4.16-.13-.81-.48-1.59-1.29-2.04-.21-.12-.46-.31-.52-.52-.46-1.76-1.96-2.59-3.21-3.64-.25-.21-.51-.44-.7-.71-2.08-2.92-5.31-4.02-8.41-5.36-2.48-1.08-5.07-1.37-7.72-1.4-1.74-.02-3.49-.01-5.23,0-1.41,0-2.82-.11-4.19,.4-.37,.14-.82,.09-1.23,.11-.25,.01-.5,0-.75,0-.41,.03-.95-.09-1.22,.13-1.68,1.32-4.1,.5-5.71,2.12-.98,.98-2.27,1.56-3.69,1.94-1.16,.32-2.24,1.08-3.24,1.79-1.34,.95-2.55,2.1-4.18,2.59-.15,.05-.32,.17-.39,.3-.8,1.54-2.43,2.48-3.06,4.15-.09,.23-.21,.48-.39,.63-2.46,2.05-3.37,5.31-5.81,7.36-.18,.16-.41,.39-.43,.6-.19,2.16-1.82,3.68-2.5,5.64-.67,1.94-1.88,3.66-2.62,5.61-.26,.69-.54,1.36-.74,2.08-.29,1.02-.44,2.12-1.22,2.95-.29,.31-.03,1.2-.79,.95-.52-.17-.34-.86-.34-1.33-.02-3.24-.02-6.48-.01-9.71,0-.41-.04-.86,.09-1.24,.52-1.45,.41-2.95,.42-4.44,0-.92,.16-1.75,.56-2.63,.65-1.42,.89-3,.93-4.58,.02-.66,.01-1.33,.03-1.99,.01-.5,.02-1.05,.46-1.36,.96-.67,.96-1.64,1.02-2.66,.07-1.24,.32-2.46,1.05-3.51,.25-.35,.4-.72,.41-1.15,.08-2.13,.91-4.02,1.92-5.83,.38-.68,.58-1.36,.72-2.09,.2-1.06-.28-1.53-1.34-1.29-.08,.02-.18,.01-.24,.06-1.61,1.18-3.47,.88-5.28,.9-1,.01-1.97,.03-2.96,.3-1.54,.42-3.14,.16-4.71,.2-1.08,.03-2.13-.04-3,.86-.52,.55-1.33,.62-2.1,.61-.91-.01-1.83,0-2.74,0-.58,0-1.2-.1-1.74,.06-2.2,.66-4.45,.38-6.68,.44-.92,.02-1.83,0-2.62,.59-.57,.42-1.25,.41-1.91,.41-1.33,0-2.66,0-3.99,0-1,0-1.98,0-2.95,.33-1.04,.35-2.14,.13-3.22,.2-1.2,.08-1.43,.3-1.48,1.52-.04,.91,0,1.83,0,2.74,0,.77,.43,1.28,1.12,1.47,1.05,.28,2.05,.58,2.87,1.37,.37,.36,.93,.29,1.42,.35,1.31,.17,2.63,.31,3.92,.6,.95,.22,2.09,.32,2.62,1.27,.63,1.14,1.48,2.22,1.47,3.62,0,1.16,0,2.32,0,3.49,0,2.57,0,5.15,0,7.72,0,1.65,0,3.29,.38,4.94,.3,1.35,.11,2.81,.13,4.22,.01,.91-.02,1.83,.01,2.74,.02,.49-.05,1.1,.21,1.45,.91,1.26,.74,2.67,.78,4.07,.02,.66,0,1.35,.19,1.97,.33,1.06,.31,2.13,.32,3.2,0,.99-.11,2.01,.68,2.81,.06,.06,.13,.14,.12,.21-.16,2.11,1.07,3.95,1.17,6,.05,.99,.22,1.88,.65,2.83,.56,1.24,.61,2.72,.83,4.1,.09,.57,.01,1.21,.45,1.64,.83,.82,.95,1.83,1.13,2.92,.22,1.35,.28,2.8,1.24,3.96,.16,.19,.1,.52-.14,.65-.19,.11-.5,.2-.67,.12-.36-.18-.67-.48-.99-.73-.86-.7-1.85-.9-2.95-1.11-2.39-.45-4.78-.45-7.18-.44-.49,0-1.02,.02-1.47,.19-.85,.31-1.33,.99-1.34,1.91-.03,1.58-.02,3.15-.03,4.73,0,1.91-.02,3.82,.02,5.73,.02,1.03,.26,1.28,1.16,1.05,4.26-1.06,8.59-.56,12.89-.65,.57-.01,1.17,.05,1.72,.22,.81,.25,1.63,.28,2.46,.28,1.16,0,2.31-.07,3.34,.69,.36,.26,.95,.26,1.44,.27,.85,.02,1.65,.11,2.35,.64,.49,.37,1.09,.32,1.67,.37,.66,.06,1.31,.19,1.96,.29,1.54,.22,3.09,.29,4.48,1.18,.59,.38,1.42,.47,2.16,.5,.96,.04,1.77,.27,2.48,.95,.28,.27,.71,.42,1.1,.53,1.35,.37,2.76,.56,3.96,1.37,.07,.04,.15,.07,.23,.08,.58,.1,1.19,.2,1.63-.29,.42-.48,.33-1.1,.16-1.66-.09-.31-.33-.57-.48-.87-1.09-2.12-1.78-4.39-2.42-6.68-.28-1.02-.63-2.08-1.2-2.96-.53-.82-.65-1.63-.8-2.54-.23-1.44-.19-3-1.2-4.23-.05-.06-.1-.15-.1-.22-.08-2.82-1.83-5.31-1.64-8.19,.03-.4,.02-.94-.21-1.2-.88-.98-.69-2.15-.82-3.29-.17-1.39-.61-2.75-.46-4.18,.12-1.15,.33-1.47,1.55-1.45,2.23,.03,4.44-.03,6.69,.34,2.08,.34,3.95,1.03,5.82,1.85,.45,.2,.96,.23,1.43,.38,1.02,.33,2.05,.62,2.82,1.49,.89,1,2.4,1.13,3.29,2.17,2.32,.82,3.59,2.86,5.19,4.5,1.16,1.19,1.91,2.67,2.83,4.03,.93,1.37,1.35,2.82,1.3,4.45-.02,.58-.02,1.16,0,1.74,.03,.9-.31,1.6-1.03,2.15-.72,.55-1.41,1.15-2.14,1.69-.32,.24-.71,.41-1.09,.57-.23,.09-.57,.02-.71,.17-1.21,1.27-2.92,1.38-4.43,1.94-.53,.2-.99,.59-1.46,.92-.36,.25-.53,.63-.57,1.06,0,.08-.01,.17-.01,.25-.03,3.84-.32,3.67,3.34,3.67,10.47,0,20.94,0,31.41,0,.83,0,1.66,.03,2.48,.14,.29,.04,.54,.35,.81,.54-1.81,1.36-3.91,2.17-5.93,3.11-2.86,1.33-5.73,2.63-8.71,3.67-2.12,.73-4.17,1.65-6.31,2.32-4.12,1.29-8.32,2.27-12.6,2.89-.66,.1-1.32,.15-1.97,.3-.74,.18-.98,.94-.48,1.56,.57,.71,1.18,1.39,1.81,2.05,2.86,3.01,5.73,5.99,8.59,9,4.16,4.39,8.31,8.81,12.47,13.2,2.68,2.83,5.38,5.64,8.06,8.47,4.28,4.51,8.55,9.04,12.82,13.55,2.62,2.77,5.26,5.52,7.88,8.29,4.39,4.64,8.77,9.28,13.16,13.92,1.71,1.81,3.46,3.58,5.17,5.38,.68,.72,1.32,1.49,1.97,2.23-.4,.35-.8,.69-1.2,1.04-2.86-2.27-5.73-4.51-8.57-6.8-15.95-12.85-31.88-25.72-47.82-38.57-.71-.57-1.43-1.14-2.14-1.7-.4-.32-.84-.51-1.36-.54-.66-.03-1.08,.37-1.11,1.05-.03,.71,.27,1.27,.66,1.83,1.2,1.69,2.36,3.41,3.55,5.1,10.87,15.46,21.74,30.92,32.61,46.38,.48,.68,.92,1.38,1.38,2.07-.03,.31,.12,.51,.41,.62,.43,.6,.86,1.19,1.29,1.79-.33,.3-.65,.6-.98,.9-2.49-2.66-5-5.31-7.47-8-4.54-4.95-9.06-9.92-13.59-14.89-5.87-6.43-11.73-12.87-17.61-19.3-5.15-5.63-10.32-11.24-15.48-16.87-4.2-4.59-8.4-9.18-12.59-13.77-5.03-5.51-10.07-11.02-15.08-16.56-.73-.81-1.54-1.11-2.62-1.12-7.57-.03-15.08-.93-22.52-2.22-10.99-1.9-21.65-5.07-32.09-8.96-5.61-2.09-11.11-4.43-16.44-7.13-11.52-5.84-22.34-12.75-32.26-21.04-3.82-3.19-7.52-6.54-11-10.09-5.23-5.35-9.87-11.19-14.14-17.34-5.34-7.68-9.55-15.95-12.82-24.67-3.22-8.58-5.24-17.46-6.04-26.61-.34-3.89-.55-7.78-.46-11.68,.04-1.82,.05-3.66,.26-5.46,.2-1.68-.16-2.89-1.39-4.21-3.9-4.18-7.59-8.57-11.35-12.88-9.06-10.37-18.12-20.74-27.18-31.11-.16-.19-.34-.36-.51-.54-1.23-1.33-1.27-1.39-2.95-.54-1.98,1-4.1,1.38-6.24,1.57-1.73,.15-3.42-.34-5.07-1.02-3.14-1.28-5.7-3.39-8.27-5.48-5.86-4.77-11.63-9.63-17.44-14.46,0-.24-.13-.32-.36-.27-.55-.42-1.1-.84-1.66-1.26,.49-.26,.98-.52,1.47-.79,.99,.57,1.99,1.14,2.98,1.71,.09,.6,.49,.88,.99,.61,.46-.24,.17-.71-.02-1.05-.19-.36-.47-.64-.91-.69-3.35-4.02-6.11-8.48-9.32-12.61-.6-.77-.55-1.07,.11-1.71,3.66-3.5,7.32-6.99,10.99-10.47,2.04-1.94,4.09-3.88,6.15-5.82,.66-.62,1.21-1.39,2.28-1.59,.55,.54,1.16,1.09,1.73,1.69,2.7,2.81,5.39,5.64,8.09,8.45,.57,.6,1.2,1.14,1.81,1.7,.06,.28,.24,.42,.53,.43,1.3,1.2,2.61,2.4,3.91,3.61,.06,.29,.25,.43,.54,.44,.43,.42,.87,.85,1.3,1.27,.28,.62,.82,.97,1.39,1.28,.11,.06,.33,.03,.44-.04,.11-.08,.22-.29,.18-.4-.21-.69-.47-1.36-1.16-1.75-.5-.82-1.01-1.64-1.51-2.46,.04-.29-.06-.49-.35-.59-1.67-2.68-3.33-5.36-5-8.03-1.93-3.1-3.87-6.2-5.8-9.29-.31-.49-.62-.99-.89-1.5-.21-.4-.18-.82,.16-1.14,.48-.45,.99-.88,1.52-1.28,.38-.29,.8-.23,1.08,.15,.3,.4,.54,.83,.8,1.26,6.15,10.28,13.02,20.04,21.13,28.89,1.97,2.15,3.64,4.54,5.08,7.06,1.82,3.2,2.26,6.71,2.01,10.35-.08,1.14-.83,2.37-.14,3.39,.57,.86,1.58,1.44,2.43,2.1,7.69,6.08,15.37,12.16,23.08,18.2,2.02,1.59,4.13,3.08,6.2,4.6,.39,.29,.83,.51,1.22,.73,.5-.36,.24-.68,.09-.92-1.42-2.34-2.78-4.72-4.31-6.99-6.03-8.95-12.1-17.87-18.17-26.8-7.98-11.74-15.97-23.47-23.95-35.21-2.66-3.91-5.36-7.8-7.94-11.77-.81-1.25-1.77-1.85-3.23-1.91-4.16-.15-8.25-.84-12.32-1.7-7.48-1.58-14.48-4.31-20.84-8.57-4.62-3.1-8.48-7.02-11.24-11.81-2.25-3.91-2.78-8.12-.24-12.3,2-3.29,4.38-6.24,7.2-8.86,2.98-2.76,5.98-5.51,8.85-8.37,1.52-1.51,2.87-3.21,3.8-5.2,1.12-2.38,1.74-4.83,1.46-7.47-.03-.33-.07-.66-.03-.99,.04-.39,.36-.55,.7-.48,.31,.07,.61,.25,.9,.42,5.11,2.94,10.27,5.8,15.3,8.86,4.19,2.55,8.1,5.49,11.28,9.3,3.91,4.69,6.45,10.01,7.53,16.03,.97,5.43,1.2,10.86,.64,16.35-.37,3.64-.34,3.68,2.33,6.26,3.46,3.34,7,6.61,10.47,9.94,2.09,2.01,4.16,4.07,6.17,6.16,2.64,2.75,5.22,5.57,7.83,8.35,4.42,4.72,8.88,9.41,12.98,14.43,3.88,4.76,7.98,9.34,11.92,14.04,5.07,6.04,9.99,12.2,14.77,18.47,3.27,4.29,6.65,8.5,9.94,12.77,1.98,2.56,3.89,5.17,5.85,7.75,.4,.52,.88,.98,1.33,1.47,0,.83,.03,1.66,.01,2.49,0,.41,.07,.93-.14,1.22-.97,1.32-.83,2.82-.87,4.31,0,.32-.04,.72-.22,.95-.86,1.08-.72,2.34-.73,3.58-.01,1.32,.12,2.63-.73,3.83-.29,.42-.24,1.12-.26,1.69-.04,1.16,0,2.32-.01,3.49,0,.5,.09,1.03-.04,1.49-.73,2.53-.38,5.11-.48,7.67-.03,.74,.04,1.55-.23,2.21-.77,1.91-.77,3.89-.74,5.88,0,.58,0,1.16,0,1.74,0,.83,.04,1.67-.62,2.33-.95,.94-1.96,2.05-3.3,2.06-1.66,.01-2.99,.69-4.43,1.28-2.09,.84-2.12,.79-2.12,2.89,0,3.56-.23,3.44,3.34,3.44,12.13,0,24.26,0,36.39,0q3.15,0,3.14-3.14c0-.83-.02-1.66-.03-2.49,0-.5-.03-1.03-.38-1.41-1.36-1.45-1.38-3.32-1.56-5.1-.12-1.18-.13-2.29-1.05-3.2-.26-.26-.43-.75-.43-1.13,.02-2.41-.78-4.74-.57-7.17,.12-1.39,.16-2.81-.74-4.07-.25-.36-.22-.96-.22-1.45-.02-3.99-.01-7.97,0-11.96,0-.41,.04-.83,.13-1.23,.1-.42,.4-.76,.83-.85,.99-.21,1.98-.35,2.78,.52,1,1.09,2.66,1.31,3.43,2.75,.68,1.26,2.01,1.95,2.95,2.99,1.93,2.14,3.08,4.65,3.3,7.54,.05,.66-.1,1.38,.33,1.93,.73,.94,.69,2.01,.69,3.09,0,1.58,0,3.16,0,4.73,0,.99-.01,1.98,.31,2.95,.35,1.04,.16,2.14,.19,3.22,.02,1.08-.01,2.16,.02,3.24,.01,.49-.01,1.05,.21,1.46,.79,1.44,1.05,3.14,2.16,4.43,.21,.25,.47,.56,.48,.85,.09,1.61,1.36,2.4,2.3,3.42,.97,1.06,2.16,1.65,3.52,2.19,1.45,.57,3.04,.73,4.39,1.56,.39,.24,.95,.27,1.44,.28,.84,.02,1.65,.08,2.36,.62,.57,.43,1.25,.39,1.92,.39,3.07,0,6.15,0,9.22,0,.66,0,1.36,.06,1.92-.37,.87-.66,1.86-.63,2.86-.63,.83,0,1.66,.03,2.49-.01,.49-.02,1.08,0,1.44-.26,.96-.68,2.01-.72,3.09-.71,.25,0,.57,.05,.73-.09,1.25-1.02,2.82-.78,4.23-1.14,1.03-.26,2.12-.38,2.91-1.26,.25-.28,.72-.38,1.1-.53,1.68-.69,3.38-1.34,5.05-2.06,.44-.19,.84-.53,1.2-.86,1.33-1.24,2.45-2.71,4.15-3.53,.25-.12,.52-.49,.55-.77,.1-1,.72-1.66,1.4-2.27,1.05-.94,1.53-2.39,2.81-3.13,.33-2.03,2.05-3.37,2.58-5.3,.13-.47,.16-.98,.25-1.46,.09-.48,.08-1.04,.32-1.43,1.23-2.02,.5-4.21,.61-6.32-.71-1.08-.74-2.58-2.04-3.3-.21-.12-.48-.29-.55-.49-.54-1.61-2.11-2.06-3.32-2.77-1.48-.86-3.18-1.35-5.01-1.16-1.47,.15-2.93-.08-4.33,.79-.8,.49-1.9,.62-2.88,.66-1.16,.05-2.05,.6-2.95,1.19-1.31,.87-2.53,1.89-4.17,2.09-1.82,1.25-4,1.93-5.46,3.8-1.11,1.43-2.48,2.69-3.85,3.89-1.31,1.15-1.63,2.87-2.66,4.16-.11,1.63-.49,3.24,.86,4.69,.85,.92,1.82,1.68,2.7,2.55,.28,.27,.7,.45,1.09,.55,2.68,.71,5.43,.64,8.16,.51,.81-.04,1.6-.4,2.39-.64,1.27-.39,2.49-.93,3.87-.82,.61,.05,1.12-.23,1.62-.55,.92-.57,1.9-.51,2.88-.2,.46,.14,.67,.86,.39,1.25-.14,.2-.28,.44-.48,.57-1.31,.81-2.56,1.77-3.97,2.34-1.35,.55-2.78,.76-3.98,1.8-.67,.58-1.87,.55-2.84,.76-.4,.09-.87-.02-1.23,.14-3.84,1.72-7.93,1.35-11.96,1.4-1.14,.02-2.06-.45-2.96-1.11-1.9-1.38-2.74-3.21-2.65-5.53,.09-2.23-.23-4.48,.44-6.68,.18-.61,.03-1.32,.08-1.98,.04-.49,0-1.09,.26-1.44,.88-1.18,.67-2.52,.74-3.83,.24-4.62-2.41-7.31-6.13-9.31-.14-.08-.34-.07-.47-.16-1.77-1.27-3.7-2.18-5.88-2.49-.22-.03-.44-.23-.61-.41-.23-.25-.35-.59-.17-.9,.11-.19,.34-.41,.54-.44,.57-.09,1.16-.1,1.74-.11,2.33-.01,4.65-.02,6.98,0,.93,0,1.83-.05,2.53-.78,.56-.58,1.29-.77,2.06-.69,2.1,.23,4.11-.47,6.18-.55,.32-.01,.71-.09,.92-.29,.66-.63,1.52-.58,2.31-.8,1.48-.42,3.15-.38,4.28-1.73,.24-.29,.72-.42,1.11-.54,2.17-.63,3.91-1.99,5.78-3.18,2.65-1.69,4.56-4.08,6.75-6.19,1.52-1.46,2.49-3.3,2.5-5.52,0-.41-.02-.94,.21-1.2,.94-1.06,.76-2.32,.77-3.55,0-1,0-1.99,0-2.99,0-.75,0-1.5-.5-2.14-.31-.41-.41-.89-.49-1.39-.55-3.16-2-5.74-4.76-7.51-.55-.35-1-.86-1.48-1.32-.48-.46-.97-.9-1.68-1-.24-.03-.57-.08-.69-.24-.91-1.33-2.43-1.28-3.74-1.71-.31-.1-.71-.09-.94-.28-1-.82-2.16-.74-3.32-.74-.33,0-.68,.04-.99-.05-3.02-.85-6.11-.31-9.17-.45-4.36,.89-8.77,.38-13.15,.51-.66,.02-1.37-.08-1.93,.34-.87,.64-1.84,.66-2.85,.66-5.48,0-10.97,0-16.45,0-.92,0-1.81-.03-2.62-.6-.32-.23-.78-.38-1.16-.35-1.77,.15-3.45-.42-5.17-.59-.57-.05-1.22-.12-1.67-.42-1.21-.8-2.57-1-3.94-1.3-.96-.21-1.94-.36-2.79-.99-.36-.26-.95-.21-1.44-.3Zm51.3-36.47h-.02c0-.83,.03-1.66,0-2.49-.05-1.23-.38-2.28-1.71-2.74-1.05-.36-1.58-1.18-1.71-2.25-.15-1.19-.71-2.21-1.28-3.22-1.83-3.28-4.34-5.23-8.39-5.09-4.07,.15-7.43,1.6-10.17,4.48-1.2,1.26-2.47,2.44-3.7,3.67-.77,.77-1.7,1.29-2.62,1.86-4.15,2.57-7.16,5.89-6.86,11.2,.03,.58,.01,1.16,0,1.74-.01,.77,.12,1.5,.71,2.05,.75,.69,.86,1.57,.82,2.51-.05,1.11,.28,2.11,.74,3.11,1.17,2.51,2.53,4.86,5.07,6.26,.65,1.18,1.78,1.07,2.86,1.02,1.41-.06,2.81-.29,4.21-.26,1.94,.04,3.78-.28,5.61-.92,1.81-.63,3.5-1.45,5.2-2.34,1.58-.84,2.6-1.99,3.43-3.45,.55-.96,.74-2.04,.79-3.1,.05-1.04,.41-1.63,1.4-2.07,1.55-.68,2.79-1.76,3.36-3.47,.15-.45,.49-.88,.85-1.2,1.16-1.03,1.51-2.33,1.4-3.82-.04-.5,0-1,0-1.49Zm38.81,16.02c.33,0,.67-.03,1,0,2.62,.24,5.13-.35,7.6-1.06,2.78-.79,4.84-2.46,5.67-5.37,.29-1,.85-1.84,1.85-2.21,1.9-.7,3-2.3,4.25-3.71,1.18-1.34,1.73-2.93,1.68-4.8-.09-3.16,0-3.16-1.87-5.69-.2-.27-.43-.51-.59-.8-.7-1.24-1.79-1.63-3.15-1.57-.91,.04-1.83,0-2.74,0-.59,0-1.16-.1-1.65-.45-1.51-1.08-3.27-1.62-4.96-2.3-2.76-1.12-5.56-2.07-8.67-1.87-2.67,.18-5.08,.71-6.95,2.76-.34,.37-.73,.69-1.26,.72-1.8,.11-3.31,1.02-4.87,1.8-2.95,1.48-4.41,3.9-4.43,7.19,0,1.08,0,2.16,.01,3.23,.02,1.4,.55,2.58,1.54,3.56,.35,.35,.71,.7,1.1,1.01,.78,.64,1.45,1.31,1.63,2.4,.17,1.02,.9,1.75,1.61,2.46,.72,.7,1.6,1.18,2.42,1.73,3.27,2.19,6.75,3.56,10.78,2.98Zm90.59,54.43h0c1.41,0,2.82,0,4.23,0,.67,0,1.34-.01,1.94-.32,.97-.49,1.97-.84,3.09-.82,.52,0,.96-.28,1.3-.65,.55-.61,1.24-1.17,1.58-1.89,.98-2.07,1.77-4.29,2-6.54,.29-2.79,.07-5.63,.06-8.44,0-.58-.05-1.15-.45-1.64-.73-.9-1.45-1.8-2.14-2.73-1.18-1.59-2.52-3.06-3.37-4.9-1.01-2.21-2.89-3.69-5.01-4.62-1.38-.61-2.91-1.16-4.54-1.1-1.9,.07-3.81,0-5.72,.03-.57,0-1.2,0-1.71,.22-2.01,.84-3.82,1.98-5.18,3.74-.51,.66-.89,1.37-1,2.23-.23,1.89-.48,3.77-.82,5.64-.18,.99-.27,1.96-.26,2.96,0,1.99,.04,3.98,0,5.97-.04,1.79,.41,3.44,1.18,5.03,.73,1.5,1.68,2.86,2.66,4.19,.91,1.22,2.12,2.04,3.59,2.55,2.05,.72,4.11,1.28,6.31,1.1,.74-.06,1.49,0,2.24,0Zm-28.79-50.18h0c0-1.58-.05-3.16,.01-4.73,.06-1.49-.43-2.77-1.27-3.95-.48-.68-.93-1.39-1.51-1.97-1.77-1.76-3.53-3.58-6.36-3.34-1.01,.09-1.73-.42-2.36-1.15-1.39-1.62-3.26-2.23-5.32-2.32-1.41-.06-2.82-.01-4.24,0-1.21,0-2.23,.43-3.2,1.17-2.46,1.88-3.85,4.28-3.88,7.41-.02,1.74,.02,3.49-.03,5.23-.03,1.21,.33,2.28,.97,3.28,.31,.48,.77,.95,.86,1.48,.33,1.87,1.23,3.61,1.27,5.55,.02,1.02,.36,1.96,1.04,2.74,.99,1.14,2.09,2.16,3.45,2.81,1.03,.5,2.11,.76,2.89,1.77,.39,.51,1.32,.62,2.03,.85,1.94,.64,3.95,.46,5.93,.47,1.83,.01,3.44-.65,4.68-1.98,1.52-1.64,2.94-3.38,4.11-5.3,.62-1.02,.96-2.08,.92-3.3-.06-1.58-.02-3.15-.02-4.73Zm56.84,124.49s0,.04,0,.05c.83,0,1.66,.03,2.49,0,2.89-.14,5.52-.97,7.76-2.9,2.46-2.12,3.84-4.73,3.83-8.02,0-1.08-.02-2.16,0-3.23,.08-4.42-2.06-7.93-4.66-11.24-1.43-.74-2-2.18-2.72-3.45-.76-1.33-1.68-2.35-2.97-3.21-.97-.65-1.89-.88-2.99-.93-1.67-.09-3.3,.45-4.93,.38-1.96-.09-3.16,.81-3.97,2.39-.65,1.27-1.51,2.37-2.43,3.43-.72,.83-1.18,1.77-1.56,2.79-.99,2.68-1.37,5.43-1.35,8.27,.02,1.98,.47,3.77,1.72,5.32,.7,.87,1.1,1.82,1.05,2.97-.09,1.98,.87,3.53,2.21,4.82,1.53,1.47,3.39,2.4,5.54,2.55,.99,.07,1.99,.01,2.98,.01Zm-17.3,41.19c2.22-.04,4.69,.4,6.8-1.21,3.73-1.46,6.59-4,8.97-7.17,.76-1.01,1.53-1.92,1.47-3.3-.02-.44,.34-.92,.59-1.34,.51-.85,1.1-1.66,1.61-2.51,2.19-3.6,1.99-7.4,.89-11.27-.02-.08-.07-.15-.1-.23-.6-1.37-1.57-2.27-3.06-2.66-1.72-.44-3.43-.54-5.18-.32-.74,.09-1.48,.24-2.22,.29-1.02,.08-1.97,.3-2.71,1.06-.45,.46-.96,.54-1.57,.52-1.82-.05-3.65-.04-5.47-.03-1.91,.01-3.5,.81-4.95,2.02-2.19,1.83-3.13,4.27-3.31,6.98-.15,2.31-.1,4.64,.04,6.95,.06,.93,.04,1.82-.19,2.69-.45,1.72-.3,3.46-.28,5.19,0,.4,.1,.85,.3,1.18,1.12,1.88,2.61,3.2,4.98,3.13,1.08-.03,2.16,0,3.39,0Zm25.55-91.89c0-1.08,.11-2.17-.03-3.23-.19-1.46-.02-3.09-.99-4.28-.66-.82-.93-1.73-1.35-2.61-.64-1.35-1.23-2.73-2-4-1.42-2.37-3.45-3.76-6.34-3.61-.66,.03-1.33,.05-1.99,0-1.88-.14-3.45,.46-4.55,2.01-.6,.84-1.35,1.11-2.34,1.09-1.24-.02-2.25,.6-3.01,1.52-1.35,1.64-2.22,3.49-2.21,5.68,0,2.16,0,4.31,0,6.47,0,1.28,.32,2.46,1.13,3.48,.8,1,1.38,2.05,1.23,3.41-.12,1.07,.46,1.7,1.49,1.97,1.82,.48,3.62,1.07,5.47,1.43,2.36,.46,4.78,.4,7.18,.47,2,.06,3.56-.62,4.82-2.09,.65-.76,1.32-1.46,2.21-1.97,.94-.53,1.35-1.39,1.29-2.5-.05-1.08-.01-2.16-.01-3.23Z"/>
  <path class="cls-6" d="M202.81,189.39c-1.66,0-3.32,.01-4.98,0-1.23,0-2.49,.19-3.55-.75-.26-.23-.78-.22-1.19-.24-1.16-.04-2.33,.04-3.43-.42-2.06,.31-3.73-1.27-5.75-1.18-1.24-.89-2.87-.71-4.13-1.54-.14-.09-.3-.22-.44-.21-1.87,.07-3.19-1.3-4.81-1.88-1.36-.49-2.69-1.22-3.46-2.64-.31-.56-.92-.95-1.36-1.44-1.36-1.5-1.19-2.82,.19-4.27,1.33-1.4,2.83-2.23,4.73-2.42,.31-.03,.71-.12,.91-.34,1.45-1.59,3.45-1.37,5.29-1.59,1.14-.13,2.3,.1,3.31-.75,.32-.27,.94-.26,1.43-.27,3.65-.02,7.3-.02,10.96,0,.49,0,1.09-.01,1.44,.25,1.18,.87,2.51,.67,3.82,.77,1.63,.13,3.34,.12,4.55,1.55,.29,.34,.73,.34,1.14,.4,1.22,.19,2.48,.29,3.66,.63,1.91,.54,3.7,1.41,5.36,2.51,.48,.32,.89,.72,1.47,.9,.3,.1,.7,.26,.82,.51,.54,1.12,1.69,1.56,2.51,2.37,1.71,1.69,1.76,3.27,.43,5.27-1.39,2.11-3.28,3.07-5.73,3.36-1.23,.15-2.43,.45-3.68,.45-.32,0-.72,.04-.95,.23-1.15,.93-2.5,.74-3.82,.75-1.58,.01-3.15,0-4.73,0Z"/>
  <path class="cls-10" d="M3.92,69.8c-.73-.57-.81-1.46-1-2.23C1.49,61.93,.44,56.22,.23,50.39c-.05-1.49-.25-2.98-.23-4.47,.09-7.06,.56-14.08,1.72-21.06,1.07-6.47,2.15-12.94,3.58-19.34,.14-.64,.16-1.33,.69-1.82,.96,.27,.79,1.19,.96,1.83,1.07,4.2,2.54,8.24,4.61,12.06,.51,.95,1.02,1.89,1.7,2.75,1.03,1.3,2.01,2.64,3.04,3.95,1.91,2.43,4.13,4.55,6.6,6.4,2.83,2.12,3.89,5.14,4.13,8.43,.14,1.92-.8,3.73-1.85,5.33-1.19,1.79-2.54,3.46-4.14,4.95-2.25,2.09-4.61,4.07-6.8,6.21-4.11,4.02-7.92,8.3-9.95,13.84-.05,.13-.21,.23-.35,.38Z"/>
  <path class="cls-11" d="M27.21,147.9c-.49,.26-.98,.52-1.47,.79-.85-.17-1.4-.82-2.06-1.3-1.8-1.31-3.57-2.67-5.36-4-.12-.19-.24-.39-.36-.58l.55-.73c2.96,1.85,6.02,3.55,8.7,5.82Z"/>
  <path class="cls-11" d="M362.2,432.5c.4-.35,.8-.69,1.2-1.04,.82,.39,1.41,1.01,1.82,1.81,.01,.53,.03,1.06,.04,1.58-.15,.02-.31,.04-.46,.05,0,0-.06-.04-.06-.04-.16-.14-.33-.27-.49-.41,0,0-.03-.03-.03-.03-.08-.26-.27-.39-.53-.43-.47-.53-1.22-.78-1.49-1.5Z"/>
  <path class="cls-11" d="M367.25,435.53c1.2,.7,2.08,1.68,2.73,2.92-.54,.22-.77-.06-1-.26-.98-.85-2.19-1.45-2.94-2.57,.4-.03,.8-.06,1.21-.09Z"/>
  <path class="cls-11" d="M340.12,444.6c.33-.3,.65-.6,.98-.9,1.08,.98,1.78,2.23,2.51,3.45-.22,.25-.43,.5-.65,.75-.24-.24-.48-.47-.72-.71-.13-.43-.43-.7-.85-.83,0,0-.06-.06-.06-.06-.14-.14-.29-.29-.43-.43,0,0-.06-.06-.06-.06-.07-.38-.28-.66-.64-.82-.11-.12-.14-.25-.09-.4Z"/>
  <path class="cls-9" d="M59.24,132.94c.68,.39,.95,1.06,1.16,1.75,.03,.11-.08,.32-.18,.4-.11,.08-.33,.1-.44,.04-.57-.31-1.11-.66-1.39-1.28,.4-.2,.68-.51,.86-.92Z"/>
  <path class="cls-11" d="M17.22,142.55c-.48-.4-1.1-.66-1.39-1.27-.05-.11-.01-.33,.07-.42,.08-.1,.29-.18,.41-.14,.84,.28,1.55,.78,2.2,1.37-.18,.24-.36,.48-.54,.72-.25-.09-.49-.17-.74-.26Z"/>
  <path class="cls-14" d="M367.25,435.53c-.4,.03-.8,.06-1.21,.09-.21-.12-.43-.25-.64-.37,.03-.16-.02-.29-.13-.4-.01-.53-.03-1.06-.04-1.58,.82,.62,1.41,1.46,2.02,2.27Z"/>
  <path class="cls-9" d="M345.73,450.95c-.55-.23-.99-.55-.98-1.24,.03-.28,.06-.56,.09-.84,.67,.49,1.16,1.08,.99,1.99l-.09,.09Z"/>
  <path class="cls-9" d="M17.22,142.55c.25,.09,.49,.17,.74,.26,.12,.19,.24,.39,.36,.58-.51-.09-.87-.38-1.1-.84Z"/>
  <path class="cls-9" d="M341.39,446.37c.43,.13,.72,.4,.85,.83-.51-.04-.73-.39-.85-.83Z"/>
  <path class="cls-9" d="M340.21,445c.36,.16,.56,.44,.64,.82-.38-.14-.57-.43-.64-.82Z"/>
  <path class="cls-9" d="M52.63,128.54c-.29,0-.47-.14-.53-.43,.3,0,.48,.13,.53,.43Z"/>
  <path class="cls-9" d="M57.37,129.89c.29,.1,.39,.3,.35,.59-.29-.09-.41-.29-.35-.59Z"/>
  <path class="cls-9" d="M57.08,132.59c-.29,0-.48-.15-.54-.44,.3,0,.48,.15,.54,.44Z"/>
  <path class="cls-9" d="M363.69,433.99c.26,.04,.44,.18,.53,.43-.18-.14-.35-.29-.53-.43Z"/>
  <path class="cls-9" d="M364.26,434.45c.16,.14,.33,.27,.49,.41-.25-.03-.41-.17-.49-.41Z"/>
  <path class="cls-9" d="M365.27,434.85c.12,.11,.16,.24,.13,.4-.29,.04-.47-.1-.59-.35,.15-.02,.31-.03,.46-.05Z"/>
  <path class="cls-11" d="M339.81,441.92c-.29-.11-.44-.3-.41-.62,.3,.1,.42,.31,.41,.62Z"/>
  <path class="cls-9" d="M340.9,445.88c.14,.14,.29,.29,.43,.43-.24-.04-.39-.19-.43-.43Z"/>
  <path class="cls-11" d="M343.61,447.16c.12,.19,.24,.37,.36,.56-.15,.24-.29,.47-.44,.71-.19-.17-.39-.35-.58-.52,.22-.25,.43-.5,.65-.75Z"/>
  <path class="cls-11" d="M343.97,447.72c.19,.21,.46,.43,.26,.75-.23,.38-.47,.11-.7-.04,.15-.23,.29-.47,.44-.7Z"/>
  <path class="cls-11" d="M344.84,448.87c-.03,.28-.06,.56-.09,.84-.13-.17-.34-.32-.39-.5-.09-.39,.14-.47,.47-.34Z"/>
  <path class="cls-9" d="M345.83,450.86c.06,.05,.18,.11,.18,.14-.04,.19-.15,.17-.27-.05,0,0,.09-.09,.09-.09Z"/>
  <path class="cls-5" d="M80.48,87.82c-1.81-1.48-3.07-3.14-4.49-4.65-.33-.35-.28-.75,0-1.12,.25-.33,.5-.66,.76-.98,3.93-4.83,8.06-9.49,12.4-13.95,6.2-6.38,12.73-12.39,19.65-17.97,11.54-9.31,23.87-17.41,37.03-24.25,10.41-5.41,21.17-9.98,32.31-13.67,14.31-4.74,28.96-8.02,43.95-9.73,6.02-.69,12.06-1.11,18.12-1.36,9.57-.4,19.08,.21,28.58,1.24,14.24,1.55,28.19,4.54,41.85,8.84,9.52,3,18.78,6.64,27.81,10.89,11.6,5.47,22.63,11.91,33.09,19.3,8.08,5.71,15.74,11.93,22.99,18.67,8.35,7.76,16.04,16.12,23.08,25.08,8.53,10.87,15.99,22.43,22.36,34.7,5.44,10.49,10.03,21.33,13.72,32.54,4.43,13.44,7.57,27.17,9.3,41.22,.83,6.67,1.41,13.35,1.62,20.08,.07,2.4,.22,4.81,.17,7.21-.16,7.63-.63,15.24-1.53,22.83-1.84,15.47-5.25,30.58-10.28,45.32-2.87,8.41-6.26,16.62-10.11,24.63-5.27,10.95-11.43,21.37-18.42,31.3-5.79,8.22-12.14,16-19.01,23.35-14.27,15.27-30.38,28.24-48.34,38.92-.29,.17-.56,.37-.85,.52-.82,.44-1.13,.43-1.79-.18-.73-.67-1.42-1.4-2.13-2.1-1.35-1.35-2.7-2.7-4.05-4.05-.3-.3-.58-.6-.58-1.17,2.14-1.28,4.35-2.59,6.54-3.92,5.03-3.07,9.98-6.26,14.72-9.76,3.34-2.46,6.66-4.94,9.87-7.57,3.98-3.26,7.88-6.6,11.54-10.22,3.18-3.15,6.41-6.26,9.48-9.52,3.29-3.5,6.43-7.15,9.41-10.92,3.6-4.55,7.08-9.19,10.36-13.99,2.99-4.39,5.77-8.91,8.44-13.5,2.21-3.8,4.17-7.74,6.14-11.67,1.49-2.96,2.92-5.95,4.19-9.01,1.74-4.21,3.61-8.38,4.96-12.75,.78-2.53,1.83-4.99,2.59-7.53,1.38-4.61,2.82-9.21,3.88-13.9,1.41-6.23,2.84-12.47,3.64-18.81,.75-5.92,1.36-11.86,1.75-17.82,.35-5.39,.42-10.78,.34-16.17-.1-6.39-.61-12.75-1.29-19.11-.46-4.29-.89-8.58-1.75-12.81-.63-3.09-1.4-6.15-1.92-9.26-1-6.08-2.95-11.91-4.7-17.78-1.52-5.08-3.31-10.08-5.36-14.99-1.34-3.22-2.75-6.4-4.18-9.58-2.07-4.62-4.42-9.09-6.79-13.55-2.5-4.69-5.31-9.2-8.19-13.65-1.84-2.85-3.77-5.66-5.83-8.38-2.45-3.24-4.87-6.5-7.45-9.64-2.21-2.69-4.54-5.28-6.83-7.9-2.79-3.19-5.81-6.14-8.79-9.14-2.92-2.94-5.99-5.72-9.15-8.41-2.34-1.99-4.68-3.98-7.09-5.88-3.78-2.98-7.62-5.86-11.6-8.58-4.66-3.19-9.45-6.17-14.32-9.03-2.79-1.64-5.69-3.09-8.55-4.59-1.32-.7-2.68-1.32-4.02-1.99-6.02-3.01-12.2-5.65-18.51-7.96-5.21-1.91-10.45-3.79-15.86-5.14-2.74-.68-5.41-1.66-8.17-2.24-6.74-1.42-13.46-3-20.3-3.85-4.28-.54-8.58-.91-12.88-1.27-5.96-.51-11.93-.7-17.91-.64-7.06,.08-14.09,.61-21.11,1.31-5.38,.54-10.72,1.27-16,2.38-5.6,1.18-11.23,2.23-16.72,3.9-4.76,1.45-9.53,2.84-14.23,4.52-5.71,2.04-11.31,4.32-16.84,6.8-3.03,1.36-5.99,2.85-8.96,4.31-2.38,1.17-4.73,2.42-7.02,3.75-3.01,1.75-5.98,3.59-8.93,5.44-2.04,1.27-4.05,2.6-6.04,3.95-6.54,4.42-12.77,9.22-18.75,14.38-3.01,2.6-6.01,5.22-8.83,8.02-3.12,3.09-6.22,6.2-9.18,9.46-3.46,3.81-6.71,7.79-10.03,11.71-.26,.31-.55,.59-.98,1.04Z"/>
  <path class="cls-5" d="M27.11,218.8c.15-13.2,1.37-26.15,3.8-38.98,.51-2.69,1.11-5.36,1.66-8.05,.07-.33,.12-.65,.21-.97,.29-1.07,.67-1.25,1.58-.73,.72,.42,1.41,.88,2.11,1.32,1.12,.71,2.23,1.45,3.37,2.13,.83,.5,1.05,1.14,.86,2.09-.57,2.85-1.17,5.7-1.55,8.57-.63,4.68-1.16,9.38-1.61,14.09-.7,7.27-.99,14.57-.8,21.87,.17,6.8,.76,13.57,1.45,20.34,.7,6.95,2.09,13.77,3.46,20.6,.97,4.81,2.42,9.48,3.68,14.21,1.45,5.46,3.39,10.75,5.4,16.01,1.57,4.1,3.27,8.15,5.15,12.14,2.19,4.65,4.46,9.26,6.94,13.77,2.12,3.85,4.41,7.6,6.73,11.33,2.68,4.3,5.56,8.46,8.58,12.51,2.92,3.92,5.96,7.76,9.2,11.44,2.52,2.86,5.03,5.72,7.7,8.45,3.31,3.37,6.65,6.7,10.16,9.88,3.5,3.18,7.09,6.26,10.79,9.2,3.96,3.15,8.02,6.16,12.21,9.01,4.53,3.08,9.17,6,13.92,8.73,3.88,2.23,7.89,4.25,11.89,6.26,3.04,1.52,6.11,3,9.25,4.28,4.22,1.72,8.37,3.62,12.76,4.93,2.62,.78,5.14,1.91,7.76,2.68,4.69,1.39,9.39,2.8,14.16,3.88,6.15,1.4,12.32,2.83,18.58,3.56,5.85,.68,11.7,1.4,17.59,1.67,4.48,.21,8.95,.46,13.44,.4,7.89-.11,15.74-.75,23.59-1.55,6.79-.7,13.46-2.02,20.12-3.44,2.35-.5,4.73-.91,7.04-1.61,.97-.29,1.57,.04,2.12,.79,1.8,2.49,3.63,4.96,5.45,7.43,.05,.07,.09,.14,.13,.21,.39,.65,.27,1.08-.49,1.3-3.04,.85-6.08,1.72-9.14,2.47-12.45,3.07-25.09,4.96-37.88,5.8-5.22,.35-10.45,.62-15.68,.46-20.7-.63-40.98-3.79-60.77-10-10.4-3.26-20.51-7.24-30.32-11.98-19.14-9.23-36.55-20.99-52.29-35.24-18.9-17.12-34.31-36.95-46.34-59.41-8.59-16.03-15.04-32.89-19.44-50.54-2.67-10.73-4.53-21.6-5.55-32.61-.58-6.28-.91-12.57-1-18.73Z"/>
  <path class="cls-10" d="M214.92,116.48c0,.5-.03,1,0,1.49,.11,1.49-.23,2.78-1.4,3.82-.36,.32-.7,.75-.85,1.2-.57,1.71-1.81,2.79-3.36,3.47-.99,.44-1.35,1.03-1.4,2.07-.05,1.07-.24,2.14-.79,3.1-.83,1.46-1.85,2.62-3.43,3.45-1.7,.9-3.39,1.71-5.2,2.34-1.83,.64-3.67,.96-5.61,.92-1.4-.03-2.81,.2-4.21,.26-1.08,.05-2.21,.16-2.86-1.02-2.54-1.4-3.9-3.74-5.07-6.26-.46-1-.79-2-.74-3.11,.04-.94-.07-1.82-.82-2.51-.6-.55-.73-1.28-.71-2.05,0-.58,.03-1.16,0-1.74-.3-5.31,2.71-8.63,6.86-11.2,.92-.57,1.85-1.09,2.62-1.86,1.23-1.23,2.5-2.41,3.7-3.67,2.74-2.89,6.1-4.34,10.17-4.48,4.05-.15,6.56,1.81,8.39,5.09,.56,1.01,1.13,2.03,1.28,3.22,.13,1.07,.66,1.89,1.71,2.25,1.33,.46,1.67,1.51,1.71,2.74,.03,.83,0,1.66,0,2.49h.02Z"/>
  <path class="cls-2" d="M253.73,132.5c-4.03,.58-7.51-.79-10.78-2.98-.83-.55-1.7-1.03-2.42-1.73-.72-.7-1.44-1.44-1.61-2.46-.18-1.09-.84-1.76-1.63-2.4-.39-.31-.74-.66-1.1-1.01-.99-.98-1.52-2.16-1.54-3.56-.01-1.08-.02-2.16-.01-3.23,.02-3.29,1.48-5.71,4.43-7.19,1.55-.78,3.06-1.69,4.87-1.8,.53-.03,.92-.35,1.26-.72,1.87-2.04,4.28-2.58,6.95-2.76,3.11-.21,5.91,.75,8.67,1.87,1.68,.68,3.45,1.22,4.96,2.3,.5,.35,1.06,.45,1.65,.45,.91,0,1.83,.04,2.74,0,1.35-.05,2.45,.33,3.15,1.57,.16,.29,.4,.53,.59,.8,1.86,2.53,1.78,2.53,1.87,5.69,.05,1.87-.5,3.46-1.68,4.8-1.24,1.41-2.35,3.01-4.25,3.71-1,.37-1.56,1.21-1.85,2.21-.83,2.91-2.89,4.58-5.67,5.37-2.47,.7-4.98,1.3-7.6,1.06-.33-.03-.66,0-1,0Z"/>
  <path class="cls-8" d="M344.32,186.93c-.75,0-1.5-.05-2.24,0-2.21,.18-4.26-.38-6.31-1.1-1.47-.51-2.68-1.33-3.59-2.55-.99-1.33-1.94-2.69-2.66-4.19-.77-1.59-1.22-3.24-1.18-5.03,.04-1.99,.02-3.98,0-5.97,0-1,.09-1.97,.26-2.96,.33-1.87,.59-3.76,.82-5.64,.11-.87,.49-1.57,1-2.23,1.36-1.75,3.18-2.9,5.18-3.74,.51-.21,1.13-.21,1.71-.22,1.91-.03,3.82,.04,5.72-.03,1.63-.06,3.16,.5,4.54,1.1,2.12,.93,3.99,2.41,5.01,4.62,.84,1.84,2.19,3.3,3.37,4.9,.69,.93,1.41,1.83,2.14,2.73,.4,.49,.45,1.05,.45,1.64,0,2.82,.23,5.66-.06,8.44-.24,2.25-1.02,4.46-2,6.54-.34,.72-1.03,1.28-1.58,1.89-.34,.38-.78,.66-1.3,.65-1.11-.02-2.11,.33-3.09,.82-.61,.31-1.28,.32-1.94,.32-1.41,0-2.82,0-4.23,0h0Z"/>
  <path class="cls-1" d="M315.53,136.76c0,1.58-.05,3.16,.02,4.73,.05,1.22-.29,2.28-.92,3.3-1.17,1.92-2.59,3.66-4.11,5.3-1.23,1.33-2.84,2-4.68,1.98-1.99-.01-4,.16-5.93-.47-.71-.23-1.64-.35-2.03-.85-.78-1.01-1.86-1.28-2.89-1.77-1.36-.65-2.47-1.68-3.45-2.81-.68-.78-1.02-1.72-1.04-2.74-.04-1.94-.95-3.67-1.27-5.55-.09-.53-.55-1-.86-1.48-.64-1-1-2.07-.97-3.28,.04-1.74,0-3.49,.03-5.23,.03-3.13,1.42-5.53,3.88-7.41,.97-.74,2-1.16,3.2-1.17,1.41,0,2.83-.05,4.24,0,2.06,.09,3.92,.69,5.32,2.32,.63,.73,1.35,1.23,2.36,1.15,2.83-.24,4.6,1.58,6.36,3.34,.58,.58,1.03,1.3,1.51,1.97,.84,1.18,1.33,2.46,1.27,3.95-.06,1.57-.01,3.15-.01,4.73h0Z"/>
  <path class="cls-3" d="M372.37,261.24c-.99,0-1.99,.06-2.98-.01-2.16-.15-4.01-1.09-5.54-2.55-1.35-1.29-2.3-2.84-2.21-4.82,.05-1.14-.35-2.1-1.05-2.97-1.25-1.55-1.7-3.34-1.72-5.32-.02-2.85,.35-5.6,1.35-8.27,.38-1.03,.85-1.97,1.56-2.79,.92-1.06,1.78-2.16,2.43-3.43,.81-1.58,2.01-2.48,3.97-2.39,1.63,.08,3.26-.46,4.93-.38,1.1,.06,2.02,.29,2.99,.93,1.29,.86,2.21,1.88,2.97,3.21,.72,1.27,1.29,2.71,2.72,3.45,2.6,3.31,4.74,6.81,4.66,11.24-.02,1.08,0,2.16,0,3.23,0,3.29-1.37,5.89-3.83,8.02-2.24,1.93-4.87,2.76-7.76,2.9-.83,.04-1.66,0-2.49,0,0-.02,0-.04,0-.05Z"/>
  <path class="cls-13" d="M355.07,302.43c-1.24,0-2.32-.03-3.39,0-2.37,.07-3.86-1.25-4.98-3.13-.2-.34-.3-.79-.3-1.18-.01-1.73-.17-3.47,.28-5.19,.23-.87,.25-1.76,.19-2.69-.14-2.31-.19-4.65-.04-6.95,.18-2.72,1.12-5.15,3.31-6.98,1.45-1.21,3.04-2.01,4.95-2.02,1.82-.01,3.65-.02,5.47,.03,.62,.02,1.13-.06,1.57-.52,.73-.76,1.69-.99,2.71-1.06,.74-.06,1.48-.2,2.22-.29,1.75-.22,3.46-.12,5.18,.32,1.49,.39,2.46,1.29,3.06,2.66,.03,.08,.08,.15,.1,.23,1.1,3.87,1.29,7.66-.89,11.27-.52,.85-1.1,1.66-1.61,2.51-.25,.42-.61,.9-.59,1.34,.06,1.38-.71,2.3-1.47,3.3-2.38,3.17-5.24,5.71-8.97,7.17-2.11,1.6-4.58,1.16-6.8,1.21Z"/>
  <path class="cls-7" d="M380.62,210.54c0,1.08-.04,2.16,.01,3.23,.05,1.11-.35,1.97-1.29,2.5-.89,.5-1.56,1.21-2.21,1.97-1.26,1.47-2.82,2.14-4.82,2.09-2.4-.07-4.82,0-7.18-.47-1.85-.36-3.65-.95-5.47-1.43-1.02-.27-1.6-.9-1.49-1.97,.15-1.36-.43-2.41-1.23-3.41-.81-1.02-1.14-2.19-1.13-3.48,0-2.16,0-4.31,0-6.47,0-2.18,.86-4.04,2.21-5.68,.76-.92,1.77-1.54,3.01-1.52,.99,.02,1.74-.25,2.34-1.09,1.1-1.56,2.67-2.15,4.55-2.01,.66,.05,1.33,.04,1.99,0,2.89-.15,4.92,1.25,6.34,3.61,.76,1.28,1.36,2.66,2,4,.42,.88,.68,1.8,1.35,2.61,.96,1.19,.8,2.82,.99,4.28,.14,1.06,.03,2.15,.03,3.23Z"/>
  <path class="cls-12" d="M390.32,134.87c-.22-.13-.46-.19-.47-.29-.04-.22-.05-.52,.08-.68,.2-.25,.49-.44,.78-.58,3.48-1.73,6.75-3.77,9.77-6.23,.55-.45,.98-.35,1.5,.21,.5,.54,.53,1.06,.07,1.52-.23,.23-.47,.47-.75,.63-2.66,1.49-5.3,3.01-8,4.42-.93,.49-2.01,.69-2.96,1.01Z"/>
</svg>